STARTFONT 2.1
COMMENT /*
COMMENT  * Spleen 16x32
COMMENT  * Copyright (c) 2018, Frederic Cambus
COMMENT  * https://www.cambus.net/
COMMENT  *
COMMENT  * Created:      2018-08-12
COMMENT  * Last Updated: 2018-08-23
COMMENT  *
COMMENT  * Spleen is released under the BSD 2-Clause license.
COMMENT  * See LICENSE file for details.
COMMENT  */
FONT "-misc-spleen-medium-r-normal--32-320-72-72-C-160-iso10646-1"
SIZE 22 75 75
FONTBOUNDINGBOX 16 32 0 -6
STARTPROPERTIES 17
FAMILY_NAME "Spleen"
FOUNDRY "misc"
SLANT "R"
SETWIDTH_NAME "Normal"
PIXEL_SIZE 32
POINT_SIZE 320
RESOLUTION_X 72
RESOLUTION_Y 72
SPACING "C"
AVERAGE_WIDTH 160
CHARSET_REGISTRY "ISO10646"
CHARSET_ENCODING "1"
FONT_ASCENT 26
FONT_DESCENT 6
COPYRIGHT "Copyright (c) 2018, Frederic Cambus"
DEFAULT_CHAR 0
_GBDFED_INFO "Edited with gbdfed 1.6."
ENDPROPERTIES
CHARS 192
STARTCHAR 0x0020
ENCODING 32
SWIDTH 698 0
DWIDTH 16 0
BBX 16 32 0 -6
BITMAP
0000
0000
0000
0000
0000
0000
0000
0000
0000
0000
0000
0000
0000
0000
0000
0000
0000
0000
0000
0000
0000
0000
0000
0000
0000
0000
0000
0000
0000
0000
0000
0000
ENDCHAR
STARTCHAR 0x0021
ENCODING 33
SWIDTH 698 0
DWIDTH 16 0
BBX 16 32 0 -6
BITMAP
0000
0000
0000
0000
0000
0000
0180
0180
0180
0180
0180
0180
0180
0180
0180
0180
0180
0180
0180
0180
0000
0000
0000
0000
0180
0180
0000
0000
0000
0000
0000
0000
ENDCHAR
STARTCHAR 0x0022
ENCODING 34
SWIDTH 698 0
DWIDTH 16 0
BBX 16 32 0 -6
BITMAP
0000
0000
0000
0000
1818
1818
1818
1818
1818
1818
1818
1818
0000
0000
0000
0000
0000
0000
0000
0000
0000
0000
0000
0000
0000
0000
0000
0000
0000
0000
0000
0000
ENDCHAR
STARTCHAR 0x0023
ENCODING 35
SWIDTH 698 0
DWIDTH 16 0
BBX 16 32 0 -6
BITMAP
0000
0000
0000
0000
0000
0000
1818
1818
1818
1818
7FFE
7FFE
1818
1818
1818
1818
1818
1818
1818
1818
7FFE
7FFE
1818
1818
1818
1818
0000
0000
0000
0000
0000
0000
ENDCHAR
STARTCHAR 0x0024
ENCODING 36
SWIDTH 698 0
DWIDTH 16 0
BBX 16 32 0 -6
BITMAP
0000
0000
0000
0000
0180
0180
0FFC
1FFC
3980
3180
3180
3180
3180
3980
1FF0
0FF8
019C
018C
018C
018C
018C
018C
018C
019C
3FF8
3FF0
0180
0180
0000
0000
0000
0000
ENDCHAR
STARTCHAR 0x0025
ENCODING 37
SWIDTH 698 0
DWIDTH 16 0
BBX 16 32 0 -6
BITMAP
0000
0000
0000
0000
0000
0000
000C
000C
0C18
1E18
1E30
0C30
0060
0060
00C0
00C0
0180
0180
0300
0300
0618
063C
0C3C
0C18
1800
1800
0000
0000
0000
0000
0000
0000
ENDCHAR
STARTCHAR 0x0026
ENCODING 38
SWIDTH 698 0
DWIDTH 16 0
BBX 16 32 0 -6
BITMAP
0000
0000
0000
0000
0000
0000
07E0
0FF0
1C38
1818
1818
1818
1818
1C38
0FF0
07E0
1F80
3FC0
70EC
607C
6038
6030
6038
707C
3FEE
1FC6
0000
0000
0000
0000
0000
0000
ENDCHAR
STARTCHAR 0x0027
ENCODING 39
SWIDTH 698 0
DWIDTH 16 0
BBX 16 32 0 -6
BITMAP
0000
0000
0000
0000
0180
0180
0180
0180
0180
0180
0180
0180
0000
0000
0000
0000
0000
0000
0000
0000
0000
0000
0000
0000
0000
0000
0000
0000
0000
0000
0000
0000
ENDCHAR
STARTCHAR 0x0028
ENCODING 40
SWIDTH 698 0
DWIDTH 16 0
BBX 16 32 0 -6
BITMAP
0000
0000
0000
003C
00FC
01E0
0380
0700
0700
0E00
0C00
1C00
1800
1800
1800
1800
1800
1800
1800
1800
1C00
0C00
0E00
0600
0700
0380
01E0
00FC
003C
0000
0000
0000
ENDCHAR
STARTCHAR 0x0029
ENCODING 41
SWIDTH 698 0
DWIDTH 16 0
BBX 16 32 0 -6
BITMAP
0000
0000
0000
3C00
3F00
0780
01C0
00E0
00E0
0070
0030
0038
0018
0018
0018
0018
0018
0018
0018
0018
0038
0030
0070
0060
00E0
01C0
0780
3F00
3C00
0000
0000
0000
ENDCHAR
STARTCHAR 0x002A
ENCODING 42
SWIDTH 698 0
DWIDTH 16 0
BBX 16 32 0 -6
BITMAP
0000
0000
0000
0000
0000
0000
0000
0000
0000
0000
1818
1C38
0E70
07E0
03C0
03C0
7FFE
7FFE
03C0
03C0
07E0
0E70
1C38
1818
0000
0000
0000
0000
0000
0000
0000
0000
ENDCHAR
STARTCHAR 0x002B
ENCODING 43
SWIDTH 698 0
DWIDTH 16 0
BBX 16 32 0 -6
BITMAP
0000
0000
0000
0000
0000
0000
0000
0000
0000
0000
0000
0000
0180
0180
0180
0180
1FF8
1FF8
0180
0180
0180
0180
0000
0000
0000
0000
0000
0000
0000
0000
0000
0000
ENDCHAR
STARTCHAR 0x002C
ENCODING 44
SWIDTH 698 0
DWIDTH 16 0
BBX 16 32 0 -6
BITMAP
0000
0000
0000
0000
0000
0000
0000
0000
0000
0000
0000
0000
0000
0000
0000
0000
0000
0000
0000
0000
0000
0000
0180
0180
0180
0380
0700
0600
0000
0000
0000
0000
ENDCHAR
STARTCHAR 0x002D
ENCODING 45
SWIDTH 698 0
DWIDTH 16 0
BBX 16 32 0 -6
BITMAP
0000
0000
0000
0000
0000
0000
0000
0000
0000
0000
0000
0000
0000
0000
0000
0000
3FFC
3FFC
0000
0000
0000
0000
0000
0000
0000
0000
0000
0000
0000
0000
0000
0000
ENDCHAR
STARTCHAR 0x002E
ENCODING 46
SWIDTH 698 0
DWIDTH 16 0
BBX 16 32 0 -6
BITMAP
0000
0000
0000
0000
0000
0000
0000
0000
0000
0000
0000
0000
0000
0000
0000
0000
0000
0000
0000
0000
0000
0000
0000
0180
0180
0180
0000
0000
0000
0000
0000
0000
ENDCHAR
STARTCHAR 0x002F
ENCODING 47
SWIDTH 698 0
DWIDTH 16 0
BBX 16 32 0 -6
BITMAP
0000
0000
0000
0006
0006
000C
000C
0018
0018
0030
0030
0060
0060
00C0
00C0
0180
0180
0300
0300
0600
0600
0C00
0C00
1800
1800
3000
3000
6000
6000
0000
0000
0000
ENDCHAR
STARTCHAR 0x0030
ENCODING 48
SWIDTH 698 0
DWIDTH 16 0
BBX 16 32 0 -6
BITMAP
0000
0000
0000
0000
0000
0000
0FF0
1FF8
381C
300C
300C
301C
303C
307C
30EC
31CC
338C
370C
3E0C
3C0C
380C
300C
300C
381C
1FF8
0FF0
0000
0000
0000
0000
0000
0000
ENDCHAR
STARTCHAR 0x0031
ENCODING 49
SWIDTH 698 0
DWIDTH 16 0
BBX 16 32 0 -6
BITMAP
0000
0000
0000
0000
0000
0000
0380
0780
0D80
1980
1180
0180
0180
0180
0180
0180
0180
0180
0180
0180
0180
0180
0180
0180
1FF8
1FF8
0000
0000
0000
0000
0000
0000
ENDCHAR
STARTCHAR 0x0032
ENCODING 50
SWIDTH 698 0
DWIDTH 16 0
BBX 16 32 0 -6
BITMAP
0000
0000
0000
0000
0000
0000
0FF0
1FF8
381C
300C
000C
000C
000C
0018
0030
0060
00C0
0180
0300
0600
0C00
1800
300C
300C
3FFC
3FFC
0000
0000
0000
0000
0000
0000
ENDCHAR
STARTCHAR 0x0033
ENCODING 51
SWIDTH 698 0
DWIDTH 16 0
BBX 16 32 0 -6
BITMAP
0000
0000
0000
0000
0000
0000
0FF0
1FF8
381C
300C
000C
000C
000C
0018
07F0
07F0
0018
000C
000C
000C
000C
000C
300C
381C
1FF8
0FF0
0000
0000
0000
0000
0000
0000
ENDCHAR
STARTCHAR 0x0034
ENCODING 52
SWIDTH 698 0
DWIDTH 16 0
BBX 16 32 0 -6
BITMAP
0000
0000
0000
0000
0000
0000
3000
3000
3000
3000
3030
3030
3030
3030
3030
3030
3030
3030
3FFC
3FFC
0030
0030
0030
0030
0030
0030
0000
0000
0000
0000
0000
0000
ENDCHAR
STARTCHAR 0x0035
ENCODING 53
SWIDTH 698 0
DWIDTH 16 0
BBX 16 32 0 -6
BITMAP
0000
0000
0000
0000
0000
0000
3FFC
3FFC
300C
300C
3000
3000
3000
3000
3FF0
3FF8
001C
000C
000C
000C
000C
000C
300C
381C
1FF8
0FF0
0000
0000
0000
0000
0000
0000
ENDCHAR
STARTCHAR 0x0036
ENCODING 54
SWIDTH 698 0
DWIDTH 16 0
BBX 16 32 0 -6
BITMAP
0000
0000
0000
0000
0000
0000
0FF0
1FF8
381C
300C
3000
3000
3000
3000
3FF0
3FF8
301C
300C
300C
300C
300C
300C
300C
381C
1FF8
0FF0
0000
0000
0000
0000
0000
0000
ENDCHAR
STARTCHAR 0x0037
ENCODING 55
SWIDTH 698 0
DWIDTH 16 0
BBX 16 32 0 -6
BITMAP
0000
0000
0000
0000
0000
0000
3FFC
3FFC
300C
300C
000C
000C
000C
0018
0030
0060
00C0
0180
0300
0300
0300
0300
0300
0300
0300
0300
0000
0000
0000
0000
0000
0000
ENDCHAR
STARTCHAR 0x0038
ENCODING 56
SWIDTH 698 0
DWIDTH 16 0
BBX 16 32 0 -6
BITMAP
0000
0000
0000
0000
0000
0000
0FF0
1FF8
381C
300C
300C
300C
300C
1818
0FF0
0FF0
1818
300C
300C
300C
300C
300C
300C
381C
1FF8
0FF0
0000
0000
0000
0000
0000
0000
ENDCHAR
STARTCHAR 0x0039
ENCODING 57
SWIDTH 698 0
DWIDTH 16 0
BBX 16 32 0 -6
BITMAP
0000
0000
0000
0000
0000
0000
0FF0
1FF8
381C
300C
300C
300C
300C
300C
300C
380C
1FFC
0FFC
000C
000C
000C
000C
300C
381C
1FF8
0FF0
0000
0000
0000
0000
0000
0000
ENDCHAR
STARTCHAR 0x003A
ENCODING 58
SWIDTH 698 0
DWIDTH 16 0
BBX 16 32 0 -6
BITMAP
0000
0000
0000
0000
0000
0000
0000
0000
0000
0000
0000
0000
0000
0180
0180
0180
0000
0000
0000
0000
0000
0000
0000
0180
0180
0180
0000
0000
0000
0000
0000
0000
ENDCHAR
STARTCHAR 0x003B
ENCODING 59
SWIDTH 698 0
DWIDTH 16 0
BBX 16 32 0 -6
BITMAP
0000
0000
0000
0000
0000
0000
0000
0000
0000
0000
0000
0000
0000
0180
0180
0180
0000
0000
0000
0000
0000
0000
0180
0180
0180
0380
0700
0600
0000
0000
0000
0000
ENDCHAR
STARTCHAR 0x003C
ENCODING 60
SWIDTH 698 0
DWIDTH 16 0
BBX 16 32 0 -6
BITMAP
0000
0000
0000
0000
0000
0000
001C
0038
0070
00E0
01C0
0380
0700
0E00
1C00
3800
3800
1C00
0E00
0700
0380
01C0
00E0
0070
0038
001C
0000
0000
0000
0000
0000
0000
ENDCHAR
STARTCHAR 0x003D
ENCODING 61
SWIDTH 698 0
DWIDTH 16 0
BBX 16 32 0 -6
BITMAP
0000
0000
0000
0000
0000
0000
0000
0000
0000
0000
0000
0000
3FFC
3FFC
0000
0000
0000
0000
3FFC
3FFC
0000
0000
0000
0000
0000
0000
0000
0000
0000
0000
0000
0000
ENDCHAR
STARTCHAR 0x003E
ENCODING 62
SWIDTH 698 0
DWIDTH 16 0
BBX 16 32 0 -6
BITMAP
0000
0000
0000
0000
0000
0000
3800
1C00
0E00
0700
0380
01C0
00E0
0070
0038
001C
001C
0038
0070
00E0
01C0
0380
0700
0E00
1C00
3800
0000
0000
0000
0000
0000
0000
ENDCHAR
STARTCHAR 0x003F
ENCODING 63
SWIDTH 698 0
DWIDTH 16 0
BBX 16 32 0 -6
BITMAP
0000
0000
0000
0000
0000
0000
0FF0
1FF8
381C
300C
000C
000C
0018
0030
0060
00C0
00C0
0180
0180
0180
0000
0000
0000
0180
0180
0180
0000
0000
0000
0000
0000
0000
ENDCHAR
STARTCHAR 0x0040
ENCODING 64
SWIDTH 698 0
DWIDTH 16 0
BBX 16 32 0 -6
BITMAP
0000
0000
0000
0000
0000
0000
0000
0000
0000
0000
0FF0
1FF8
381C
300C
300C
31CC
31CC
31CC
31CC
31CC
31FC
31FC
3000
3800
1FF8
0FF8
0000
0000
0000
0000
0000
0000
ENDCHAR
STARTCHAR 0x0041
ENCODING 65
SWIDTH 698 0
DWIDTH 16 0
BBX 16 32 0 -6
BITMAP
0000
0000
0000
0000
0000
0000
0FF0
1FF8
381C
300C
300C
300C
300C
300C
3FFC
3FFC
300C
300C
300C
300C
300C
300C
300C
300C
300C
300C
0000
0000
0000
0000
0000
0000
ENDCHAR
STARTCHAR 0x0042
ENCODING 66
SWIDTH 698 0
DWIDTH 16 0
BBX 16 32 0 -6
BITMAP
0000
0000
0000
0000
0000
0000
3FF0
3FF8
301C
300C
300C
300C
300C
3018
3FF0
3FF0
3018
300C
300C
300C
300C
300C
300C
301C
3FF8
3FF0
0000
0000
0000
0000
0000
0000
ENDCHAR
STARTCHAR 0x0043
ENCODING 67
SWIDTH 698 0
DWIDTH 16 0
BBX 16 32 0 -6
BITMAP
0000
0000
0000
0000
0000
0000
0FFC
1FFC
380C
300C
3000
3000
3000
3000
3000
3000
3000
3000
3000
3000
3000
3000
3000
3800
1FFC
0FFC
0000
0000
0000
0000
0000
0000
ENDCHAR
STARTCHAR 0x0044
ENCODING 68
SWIDTH 698 0
DWIDTH 16 0
BBX 16 32 0 -6
BITMAP
0000
0000
0000
0000
0000
0000
3FF0
3FF8
301C
300C
300C
300C
300C
300C
300C
300C
300C
300C
300C
300C
300C
300C
300C
301C
3FF8
3FF0
0000
0000
0000
0000
0000
0000
ENDCHAR
STARTCHAR 0x0045
ENCODING 69
SWIDTH 698 0
DWIDTH 16 0
BBX 16 32 0 -6
BITMAP
0000
0000
0000
0000
0000
0000
0FFC
1FFC
3800
3000
3000
3000
3000
3000
3FE0
3FE0
3000
3000
3000
3000
3000
3000
3000
3800
1FFC
0FFC
0000
0000
0000
0000
0000
0000
ENDCHAR
STARTCHAR 0x0046
ENCODING 70
SWIDTH 698 0
DWIDTH 16 0
BBX 16 32 0 -6
BITMAP
0000
0000
0000
0000
0000
0000
0FFC
1FFC
380C
300C
3000
3000
3000
3000
3FE0
3FE0
3000
3000
3000
3000
3000
3000
3000
3000
3000
3000
0000
0000
0000
0000
0000
0000
ENDCHAR
STARTCHAR 0x0047
ENCODING 71
SWIDTH 698 0
DWIDTH 16 0
BBX 16 32 0 -6
BITMAP
0000
0000
0000
0000
0000
0000
0FFC
1FFC
380C
300C
3000
3000
3000
3000
30FC
30FC
300C
300C
300C
300C
300C
300C
300C
380C
1FFC
0FFC
0000
0000
0000
0000
0000
0000
ENDCHAR
STARTCHAR 0x0048
ENCODING 72
SWIDTH 698 0
DWIDTH 16 0
BBX 16 32 0 -6
BITMAP
0000
0000
0000
0000
0000
0000
300C
300C
300C
300C
300C
300C
300C
300C
3FFC
3FFC
300C
300C
300C
300C
300C
300C
300C
300C
300C
300C
0000
0000
0000
0000
0000
0000
ENDCHAR
STARTCHAR 0x0049
ENCODING 73
SWIDTH 698 0
DWIDTH 16 0
BBX 16 32 0 -6
BITMAP
0000
0000
0000
0000
0000
0000
1FF8
1FF8
0180
0180
0180
0180
0180
0180
0180
0180
0180
0180
0180
0180
0180
0180
0180
0180
1FF8
1FF8
0000
0000
0000
0000
0000
0000
ENDCHAR
STARTCHAR 0x004A
ENCODING 74
SWIDTH 698 0
DWIDTH 16 0
BBX 16 32 0 -6
BITMAP
0000
0000
0000
0000
0000
0000
1FF8
1FF8
0180
0180
0180
0180
0180
0180
0180
0180
0180
0180
0180
0180
0180
0180
0180
0380
7F00
7E00
0000
0000
0000
0000
0000
0000
ENDCHAR
STARTCHAR 0x004B
ENCODING 75
SWIDTH 698 0
DWIDTH 16 0
BBX 16 32 0 -6
BITMAP
0000
0000
0000
0000
0000
0000
300C
300C
300C
300C
300C
300C
3018
3030
3FE0
3FE0
3030
3018
300C
300C
300C
300C
300C
300C
300C
300C
0000
0000
0000
0000
0000
0000
ENDCHAR
STARTCHAR 0x004C
ENCODING 76
SWIDTH 698 0
DWIDTH 16 0
BBX 16 32 0 -6
BITMAP
0000
0000
0000
0000
0000
0000
3000
3000
3000
3000
3000
3000
3000
3000
3000
3000
3000
3000
3000
3000
3000
3000
3000
3800
1FF8
0FF8
0000
0000
0000
0000
0000
0000
ENDCHAR
STARTCHAR 0x004D
ENCODING 77
SWIDTH 698 0
DWIDTH 16 0
BBX 16 32 0 -6
BITMAP
0000
0000
0000
0000
0000
0000
300C
381C
3C3C
3E7C
37EC
33CC
318C
300C
300C
300C
300C
300C
300C
300C
300C
300C
300C
300C
300C
300C
0000
0000
0000
0000
0000
0000
ENDCHAR
STARTCHAR 0x004E
ENCODING 78
SWIDTH 698 0
DWIDTH 16 0
BBX 16 32 0 -6
BITMAP
0000
0000
0000
0000
0000
0000
300C
300C
380C
380C
3C0C
3C0C
360C
360C
330C
330C
318C
318C
30CC
30CC
306C
306C
303C
303C
301C
301C
0000
0000
0000
0000
0000
0000
ENDCHAR
STARTCHAR 0x004F
ENCODING 79
SWIDTH 698 0
DWIDTH 16 0
BBX 16 32 0 -6
BITMAP
0000
0000
0000
0000
0000
0000
0FF0
1FF8
381C
300C
300C
300C
300C
300C
300C
300C
300C
300C
300C
300C
300C
300C
300C
381C
1FF8
0FF0
0000
0000
0000
0000
0000
0000
ENDCHAR
STARTCHAR 0x0050
ENCODING 80
SWIDTH 698 0
DWIDTH 16 0
BBX 16 32 0 -6
BITMAP
0000
0000
0000
0000
0000
0000
3FF0
3FF8
301C
300C
300C
300C
300C
301C
3FF8
3FF0
3000
3000
3000
3000
3000
3000
3000
3000
3000
3000
0000
0000
0000
0000
0000
0000
ENDCHAR
STARTCHAR 0x0051
ENCODING 81
SWIDTH 698 0
DWIDTH 16 0
BBX 16 32 0 -6
BITMAP
0000
0000
0000
0000
0000
0000
0FFC
1FFC
380C
300C
300C
300C
300C
300C
300C
300C
300C
300C
300C
300C
318C
318C
318C
319C
3FF8
3FF0
0180
0180
0180
0180
0000
0000
ENDCHAR
STARTCHAR 0x0052
ENCODING 82
SWIDTH 698 0
DWIDTH 16 0
BBX 16 32 0 -6
BITMAP
0000
0000
0000
0000
0000
0000
3FF0
3FF8
301C
300C
300C
300C
300C
3018
3FF0
3FF0
3018
300C
300C
300C
300C
300C
300C
300C
300C
300C
0000
0000
0000
0000
0000
0000
ENDCHAR
STARTCHAR 0x0053
ENCODING 83
SWIDTH 698 0
DWIDTH 16 0
BBX 16 32 0 -6
BITMAP
0000
0000
0000
0000
0000
0000
0FFC
1FFC
3800
3000
3000
3000
3000
3800
1FF0
0FF8
001C
000C
000C
000C
000C
000C
000C
001C
3FF8
3FF0
0000
0000
0000
0000
0000
0000
ENDCHAR
STARTCHAR 0x0054
ENCODING 84
SWIDTH 698 0
DWIDTH 16 0
BBX 16 32 0 -6
BITMAP
0000
0000
0000
0000
0000
0000
7FFE
7FFE
0180
0180
0180
0180
0180
0180
0180
0180
0180
0180
0180
0180
0180
0180
0180
0180
0180
0180
0000
0000
0000
0000
0000
0000
ENDCHAR
STARTCHAR 0x0055
ENCODING 85
SWIDTH 698 0
DWIDTH 16 0
BBX 16 32 0 -6
BITMAP
0000
0000
0000
0000
0000
0000
300C
300C
300C
300C
300C
300C
300C
300C
300C
300C
300C
300C
300C
300C
300C
300C
300C
380C
1FFC
0FFC
0000
0000
0000
0000
0000
0000
ENDCHAR
STARTCHAR 0x0056
ENCODING 86
SWIDTH 698 0
DWIDTH 16 0
BBX 16 32 0 -6
BITMAP
0000
0000
0000
0000
0000
0000
300C
300C
300C
300C
300C
300C
300C
300C
300C
300C
300C
300C
300C
300C
1818
1818
0C30
0660
03C0
0180
0000
0000
0000
0000
0000
0000
ENDCHAR
STARTCHAR 0x0057
ENCODING 87
SWIDTH 698 0
DWIDTH 16 0
BBX 16 32 0 -6
BITMAP
0000
0000
0000
0000
0000
0000
300C
300C
300C
300C
300C
300C
300C
300C
300C
300C
300C
300C
300C
318C
33CC
37EC
3E7C
3C3C
381C
300C
0000
0000
0000
0000
0000
0000
ENDCHAR
STARTCHAR 0x0058
ENCODING 88
SWIDTH 698 0
DWIDTH 16 0
BBX 16 32 0 -6
BITMAP
0000
0000
0000
0000
0000
0000
300C
300C
300C
300C
300C
300C
1818
0C30
07E0
07E0
0C30
1818
300C
300C
300C
300C
300C
300C
300C
300C
0000
0000
0000
0000
0000
0000
ENDCHAR
STARTCHAR 0x0059
ENCODING 89
SWIDTH 698 0
DWIDTH 16 0
BBX 16 32 0 -6
BITMAP
0000
0000
0000
0000
0000
0000
300C
300C
300C
300C
300C
300C
300C
380C
1FFC
0FFC
000C
000C
000C
000C
000C
000C
000C
001C
3FF8
3FF0
0000
0000
0000
0000
0000
0000
ENDCHAR
STARTCHAR 0x005A
ENCODING 90
SWIDTH 698 0
DWIDTH 16 0
BBX 16 32 0 -6
BITMAP
0000
0000
0000
0000
0000
0000
3FFC
3FFC
000C
000C
000C
000C
0018
0030
0060
00C0
0180
0300
0600
0C00
1800
3000
3000
3000
3FFC
3FFC
0000
0000
0000
0000
0000
0000
ENDCHAR
STARTCHAR 0x005B
ENCODING 91
SWIDTH 698 0
DWIDTH 16 0
BBX 16 32 0 -6
BITMAP
0000
0000
0FFC
0FFC
0C00
0C00
0C00
0C00
0C00
0C00
0C00
0C00
0C00
0C00
0C00
0C00
0C00
0C00
0C00
0C00
0C00
0C00
0C00
0C00
0C00
0C00
0C00
0C00
0FFC
0FFC
0000
0000
ENDCHAR
STARTCHAR 0x005C
ENCODING 92
SWIDTH 698 0
DWIDTH 16 0
BBX 16 32 0 -6
BITMAP
0000
0000
0000
6000
6000
3000
3000
1800
1800
0C00
0C00
0600
0600
0300
0300
0180
0180
00C0
00C0
0060
0060
0030
0030
0018
0018
000C
000C
0006
0006
0000
0000
0000
ENDCHAR
STARTCHAR 0x005D
ENCODING 93
SWIDTH 698 0
DWIDTH 16 0
BBX 16 32 0 -6
BITMAP
0000
0000
3FF0
3FF0
0030
0030
0030
0030
0030
0030
0030
0030
0030
0030
0030
0030
0030
0030
0030
0030
0030
0030
0030
0030
0030
0030
0030
0030
3FF0
3FF0
0000
0000
ENDCHAR
STARTCHAR 0x005E
ENCODING 94
SWIDTH 698 0
DWIDTH 16 0
BBX 16 32 0 -6
BITMAP
0000
0000
0000
0000
0180
03C0
07E0
0E70
1C38
381C
700E
6006
0000
0000
0000
0000
0000
0000
0000
0000
0000
0000
0000
0000
0000
0000
0000
0000
0000
0000
0000
0000
ENDCHAR
STARTCHAR 0x005F
ENCODING 95
SWIDTH 698 0
DWIDTH 16 0
BBX 16 32 0 -6
BITMAP
0000
0000
0000
0000
0000
0000
0000
0000
0000
0000
0000
0000
0000
0000
0000
0000
0000
0000
0000
0000
0000
0000
0000
0000
0000
0000
0000
0000
7FFE
7FFE
0000
0000
ENDCHAR
STARTCHAR 0x0060
ENCODING 96
SWIDTH 698 0
DWIDTH 16 0
BBX 16 32 0 -6
BITMAP
0000
0000
0000
0000
0600
0700
0380
01C0
00E0
0060
0000
0000
0000
0000
0000
0000
0000
0000
0000
0000
0000
0000
0000
0000
0000
0000
0000
0000
0000
0000
0000
0000
ENDCHAR
STARTCHAR 0x0061
ENCODING 97
SWIDTH 698 0
DWIDTH 16 0
BBX 16 32 0 -6
BITMAP
0000
0000
0000
0000
0000
0000
0000
0000
0000
0000
0000
0000
1FF0
1FF8
001C
000C
000C
0FFC
1FFC
380C
300C
300C
300C
380C
1FFC
0FFC
0000
0000
0000
0000
0000
0000
ENDCHAR
STARTCHAR 0x0062
ENCODING 98
SWIDTH 698 0
DWIDTH 16 0
BBX 16 32 0 -6
BITMAP
0000
0000
0000
0000
0000
0000
3000
3000
3000
3000
3000
3000
3FF0
3FF8
301C
300C
300C
300C
300C
300C
300C
300C
300C
301C
3FF8
3FF0
0000
0000
0000
0000
0000
0000
ENDCHAR
STARTCHAR 0x0063
ENCODING 99
SWIDTH 698 0
DWIDTH 16 0
BBX 16 32 0 -6
BITMAP
0000
0000
0000
0000
0000
0000
0000
0000
0000
0000
0000
0000
0FFC
1FFC
380C
300C
3000
3000
3000
3000
3000
3000
3000
3800
1FFC
0FFC
0000
0000
0000
0000
0000
0000
ENDCHAR
STARTCHAR 0x0064
ENCODING 100
SWIDTH 698 0
DWIDTH 16 0
BBX 16 32 0 -6
BITMAP
0000
0000
0000
0000
0000
0000
000C
000C
000C
000C
000C
000C
0FFC
1FFC
380C
300C
300C
300C
300C
300C
300C
300C
300C
380C
1FFC
0FFC
0000
0000
0000
0000
0000
0000
ENDCHAR
STARTCHAR 0x0065
ENCODING 101
SWIDTH 698 0
DWIDTH 16 0
BBX 16 32 0 -6
BITMAP
0000
0000
0000
0000
0000
0000
0000
0000
0000
0000
0000
0000
0FFC
1FFC
380C
300C
300C
300C
3FFC
3FFC
3000
3000
3000
3800
1FFC
0FFC
0000
0000
0000
0000
0000
0000
ENDCHAR
STARTCHAR 0x0066
ENCODING 102
SWIDTH 698 0
DWIDTH 16 0
BBX 16 32 0 -6
BITMAP
0000
0000
0000
0000
0000
0000
01F8
03F8
0700
0600
0600
0600
0600
0600
1FE0
1FE0
0600
0600
0600
0600
0600
0600
0600
0600
0600
0600
0000
0000
0000
0000
0000
0000
ENDCHAR
STARTCHAR 0x0067
ENCODING 103
SWIDTH 698 0
DWIDTH 16 0
BBX 16 32 0 -6
BITMAP
0000
0000
0000
0000
0000
0000
0000
0000
0000
0000
0000
0000
0FFC
1FFC
380C
300C
300C
300C
300C
300C
300C
300C
300C
3818
1FF0
0FF0
0018
000C
000C
001C
3FF8
3FF0
ENDCHAR
STARTCHAR 0x0068
ENCODING 104
SWIDTH 698 0
DWIDTH 16 0
BBX 16 32 0 -6
BITMAP
0000
0000
0000
0000
0000
0000
3000
3000
3000
3000
3000
3000
3FF0
3FF8
301C
300C
300C
300C
300C
300C
300C
300C
300C
300C
300C
300C
0000
0000
0000
0000
0000
0000
ENDCHAR
STARTCHAR 0x0069
ENCODING 105
SWIDTH 698 0
DWIDTH 16 0
BBX 16 32 0 -6
BITMAP
0000
0000
0000
0000
0000
0000
0180
0180
0180
0000
0000
0000
0180
0180
0180
0180
0180
0180
0180
0180
0180
0180
0180
0180
0180
0180
0000
0000
0000
0000
0000
0000
ENDCHAR
STARTCHAR 0x006A
ENCODING 106
SWIDTH 698 0
DWIDTH 16 0
BBX 16 32 0 -6
BITMAP
0000
0000
0000
0000
0000
0000
0180
0180
0180
0000
0000
0000
0180
0180
0180
0180
0180
0180
0180
0180
0180
0180
0180
0180
0180
0180
0180
0180
0180
0380
1F00
1E00
ENDCHAR
STARTCHAR 0x006B
ENCODING 107
SWIDTH 698 0
DWIDTH 16 0
BBX 16 32 0 -6
BITMAP
0000
0000
0000
0000
0000
0000
3000
3000
3000
3000
3000
3000
3060
30E0
31C0
3380
3700
3E00
3E00
3700
3380
31C0
30E0
3070
3038
3018
0000
0000
0000
0000
0000
0000
ENDCHAR
STARTCHAR 0x006C
ENCODING 108
SWIDTH 698 0
DWIDTH 16 0
BBX 16 32 0 -6
BITMAP
0000
0000
0000
0000
0000
0000
0600
0600
0600
0600
0600
0600
0600
0600
0600
0600
0600
0600
0600
0600
0600
0600
0600
0700
03F8
01F8
0000
0000
0000
0000
0000
0000
ENDCHAR
STARTCHAR 0x006D
ENCODING 109
SWIDTH 698 0
DWIDTH 16 0
BBX 16 32 0 -6
BITMAP
0000
0000
0000
0000
0000
0000
0000
0000
0000
0000
0000
0000
0E7C
1E7C
398C
318C
318C
318C
318C
318C
318C
318C
300C
300C
300C
300C
0000
0000
0000
0000
0000
0000
ENDCHAR
STARTCHAR 0x006E
ENCODING 110
SWIDTH 698 0
DWIDTH 16 0
BBX 16 32 0 -6
BITMAP
0000
0000
0000
0000
0000
0000
0000
0000
0000
0000
0000
0000
0FFC
1FFC
380C
300C
300C
300C
300C
300C
300C
300C
300C
300C
300C
300C
0000
0000
0000
0000
0000
0000
ENDCHAR
STARTCHAR 0x006F
ENCODING 111
SWIDTH 698 0
DWIDTH 16 0
BBX 16 32 0 -6
BITMAP
0000
0000
0000
0000
0000
0000
0000
0000
0000
0000
0000
0000
0FF0
1FF8
381C
300C
300C
300C
300C
300C
300C
300C
300C
381C
1FF8
0FF0
0000
0000
0000
0000
0000
0000
ENDCHAR
STARTCHAR 0x0070
ENCODING 112
SWIDTH 698 0
DWIDTH 16 0
BBX 16 32 0 -6
BITMAP
0000
0000
0000
0000
0000
0000
0000
0000
0000
0000
0000
0000
3FF0
3FF8
301C
300C
300C
300C
300C
300C
300C
300C
300C
301C
3FF8
3FF0
3000
3000
3000
3000
3000
3000
ENDCHAR
STARTCHAR 0x0071
ENCODING 113
SWIDTH 698 0
DWIDTH 16 0
BBX 16 32 0 -6
BITMAP
0000
0000
0000
0000
0000
0000
0000
0000
0000
0000
0000
0000
0FFC
1FFC
380C
300C
300C
300C
300C
300C
300C
300C
300C
380C
1FFC
0FFC
000C
000C
000C
000C
000C
000C
ENDCHAR
STARTCHAR 0x0072
ENCODING 114
SWIDTH 698 0
DWIDTH 16 0
BBX 16 32 0 -6
BITMAP
0000
0000
0000
0000
0000
0000
0000
0000
0000
0000
0000
0000
0FFC
1FFC
380C
300C
3000
3000
3000
3000
3000
3000
3000
3000
3000
3000
0000
0000
0000
0000
0000
0000
ENDCHAR
STARTCHAR 0x0073
ENCODING 115
SWIDTH 698 0
DWIDTH 16 0
BBX 16 32 0 -6
BITMAP
0000
0000
0000
0000
0000
0000
0000
0000
0000
0000
0000
0000
0FFC
1FFC
3800
3000
3000
3800
1FF0
0FF8
001C
000C
000C
001C
3FF8
3FF0
0000
0000
0000
0000
0000
0000
ENDCHAR
STARTCHAR 0x0074
ENCODING 116
SWIDTH 698 0
DWIDTH 16 0
BBX 16 32 0 -6
BITMAP
0000
0000
0000
0000
0000
0000
0600
0600
0600
0600
0600
0600
1FE0
1FE0
0600
0600
0600
0600
0600
0600
0600
0600
0600
0700
03F8
01F8
0000
0000
0000
0000
0000
0000
ENDCHAR
STARTCHAR 0x0075
ENCODING 117
SWIDTH 698 0
DWIDTH 16 0
BBX 16 32 0 -6
BITMAP
0000
0000
0000
0000
0000
0000
0000
0000
0000
0000
0000
0000
300C
300C
300C
300C
300C
300C
300C
300C
300C
300C
300C
380C
1FFC
0FFC
0000
0000
0000
0000
0000
0000
ENDCHAR
STARTCHAR 0x0076
ENCODING 118
SWIDTH 698 0
DWIDTH 16 0
BBX 16 32 0 -6
BITMAP
0000
0000
0000
0000
0000
0000
0000
0000
0000
0000
0000
0000
300C
300C
300C
300C
300C
300C
300C
300C
1818
1818
0C30
0660
03C0
0180
0000
0000
0000
0000
0000
0000
ENDCHAR
STARTCHAR 0x0077
ENCODING 119
SWIDTH 698 0
DWIDTH 16 0
BBX 16 32 0 -6
BITMAP
0000
0000
0000
0000
0000
0000
0000
0000
0000
0000
0000
0000
300C
300C
300C
300C
318C
318C
318C
318C
318C
318C
318C
398C
1E7C
0E7C
0000
0000
0000
0000
0000
0000
ENDCHAR
STARTCHAR 0x0078
ENCODING 120
SWIDTH 698 0
DWIDTH 16 0
BBX 16 32 0 -6
BITMAP
0000
0000
0000
0000
0000
0000
0000
0000
0000
0000
0000
0000
300C
300C
1818
0C30
0660
03C0
03C0
0660
0C30
1818
1818
300C
300C
300C
0000
0000
0000
0000
0000
0000
ENDCHAR
STARTCHAR 0x0079
ENCODING 121
SWIDTH 698 0
DWIDTH 16 0
BBX 16 32 0 -6
BITMAP
0000
0000
0000
0000
0000
0000
0000
0000
0000
0000
0000
0000
300C
300C
300C
300C
300C
300C
300C
300C
300C
300C
300C
380C
1FFC
0FFC
000C
000C
000C
001C
3FF8
3FF0
ENDCHAR
STARTCHAR 0x007A
ENCODING 122
SWIDTH 698 0
DWIDTH 16 0
BBX 16 32 0 -6
BITMAP
0000
0000
0000
0000
0000
0000
0000
0000
0000
0000
0000
0000
3FFC
3FFC
000C
0018
0030
0060
00C0
0180
0300
0600
0C00
1800
3FFC
3FFC
0000
0000
0000
0000
0000
0000
ENDCHAR
STARTCHAR 0x007B
ENCODING 123
SWIDTH 698 0
DWIDTH 16 0
BBX 16 32 0 -6
BITMAP
0000
0000
00FC
01FC
0380
0300
0300
0300
0300
0300
0300
0300
0300
0700
3E00
3C00
3C00
3E00
0700
0300
0300
0300
0300
0300
0300
0300
0300
0380
01FC
00FC
0000
0000
ENDCHAR
STARTCHAR 0x007C
ENCODING 124
SWIDTH 698 0
DWIDTH 16 0
BBX 16 32 0 -6
BITMAP
0000
0000
0000
0000
0180
0180
0180
0180
0180
0180
0180
0180
0180
0180
0180
0180
0180
0180
0180
0180
0180
0180
0180
0180
0180
0180
0180
0180
0000
0000
0000
0000
ENDCHAR
STARTCHAR 0x007D
ENCODING 125
SWIDTH 698 0
DWIDTH 16 0
BBX 16 32 0 -6
BITMAP
0000
0000
3F00
3F80
01C0
00C0
00C0
00C0
00C0
00C0
00C0
00C0
00C0
00E0
007C
003C
003C
007C
00E0
00C0
00C0
00C0
00C0
00C0
00C0
00C0
00C0
01C0
3F80
3F00
0000
0000
ENDCHAR
STARTCHAR 0x007E
ENCODING 126
SWIDTH 698 0
DWIDTH 16 0
BBX 16 32 0 -6
BITMAP
0000
0000
0000
0000
0E0C
1F0C
3B9C
31F8
30F0
0000
0000
0000
0000
0000
0000
0000
0000
0000
0000
0000
0000
0000
0000
0000
0000
0000
0000
0000
0000
0000
0000
0000
ENDCHAR
STARTCHAR 0x007F
ENCODING 127
SWIDTH 698 0
DWIDTH 16 0
BBX 16 32 0 -6
BITMAP
0000
0000
0000
0000
0000
0000
0000
0000
0000
0000
0000
0000
0000
0000
0000
0000
0000
0000
0000
0000
0000
0000
0000
0000
0000
0000
0000
0000
0000
0000
0000
0000
ENDCHAR
STARTCHAR 0x00A0
ENCODING 160
SWIDTH 698 0
DWIDTH 16 0
BBX 16 32 0 -6
BITMAP
0000
0000
0000
0000
0000
0000
0000
0000
0000
0000
0000
0000
0000
0000
0000
0000
0000
0000
0000
0000
0000
0000
0000
0000
0000
0000
0000
0000
0000
0000
0000
0000
ENDCHAR
STARTCHAR 0x00A1
ENCODING 161
SWIDTH 698 0
DWIDTH 16 0
BBX 16 32 0 -6
BITMAP
0000
0000
0000
0000
0000
0000
0180
0180
0000
0000
0000
0000
0180
0180
0180
0180
0180
0180
0180
0180
0180
0180
0180
0180
0180
0180
0000
0000
0000
0000
0000
0000
ENDCHAR
STARTCHAR 0x00A2
ENCODING 162
SWIDTH 698 0
DWIDTH 16 0
BBX 16 32 0 -6
BITMAP
0000
0000
0000
0000
0000
0000
0000
0000
0000
0000
00C0
00C0
0FFC
1FFC
38CC
30CC
30C0
30C0
30C0
30C0
30C0
30C0
30C0
38C0
1FFC
0FFC
00C0
00C0
0000
0000
0000
0000
ENDCHAR
STARTCHAR 0x00A3
ENCODING 163
SWIDTH 698 0
DWIDTH 16 0
BBX 16 32 0 -6
BITMAP
0000
0000
0000
0000
0000
0000
03E0
07F0
0E38
0C18
0C00
0C00
0C00
0C00
0C00
3FF0
3FF0
0C00
0C00
0C00
0C00
0C00
1800
1800
3FFC
3FFC
0000
0000
0000
0000
0000
0000
ENDCHAR
STARTCHAR 0x00A4
ENCODING 164
SWIDTH 698 0
DWIDTH 16 0
BBX 16 32 0 -6
BITMAP
0000
0000
0000
0000
0000
0000
0000
0000
0000
1C38
0E70
07E0
0FF0
1C38
1818
1818
1818
1818
1C38
0FF0
07E0
0E70
1C38
0000
0000
0000
0000
0000
0000
0000
0000
0000
ENDCHAR
STARTCHAR 0x00A5
ENCODING 165
SWIDTH 698 0
DWIDTH 16 0
BBX 16 32 0 -6
BITMAP
0000
0000
0000
0000
0000
0000
300C
300C
1818
1818
0C30
0C30
0660
0660
03C0
03C0
0180
0180
1FF8
1FF8
0180
0180
1FF8
1FF8
0180
0180
0000
0000
0000
0000
0000
0000
ENDCHAR
STARTCHAR 0x00A6
ENCODING 166
SWIDTH 698 0
DWIDTH 16 0
BBX 16 32 0 -6
BITMAP
0000
0000
0000
0000
0180
0180
0180
0180
0180
0180
0180
0180
0180
0180
0000
0000
0000
0000
0180
0180
0180
0180
0180
0180
0180
0180
0180
0180
0000
0000
0000
0000
ENDCHAR
STARTCHAR 0x00A7
ENCODING 167
SWIDTH 698 0
DWIDTH 16 0
BBX 16 32 0 -6
BITMAP
0000
0000
0000
0000
07E0
0FF0
1C70
1800
1800
1C00
0E00
07E0
0FF0
1C38
1818
1818
1818
1818
1C38
0FF0
07E0
0070
0038
0018
0018
0E38
0FF0
07E0
0000
0000
0000
0000
ENDCHAR
STARTCHAR 0x00A8
ENCODING 168
SWIDTH 698 0
DWIDTH 16 0
BBX 16 32 0 -6
BITMAP
0000
0000
0000
0000
0000
0000
0000
0C30
0C30
0C30
0000
0000
0000
0000
0000
0000
0000
0000
0000
0000
0000
0000
0000
0000
0000
0000
0000
0000
0000
0000
0000
0000
ENDCHAR
STARTCHAR 0x00A9
ENCODING 169
SWIDTH 698 0
DWIDTH 16 0
BBX 16 32 0 -6
BITMAP
0000
0000
0000
0000
0000
0000
0000
0000
0000
0000
0FF0
1FF8
381C
300C
33EC
37EC
366C
360C
360C
360C
37EC
33EC
300C
381C
1FF8
0FF0
0000
0000
0000
0000
0000
0000
ENDCHAR
STARTCHAR 0x00AA
ENCODING 170
SWIDTH 698 0
DWIDTH 16 0
BBX 16 32 0 -6
BITMAP
0000
0000
0000
0000
07C0
07E0
0070
0030
07F0
0FF0
0C30
0C30
0FF0
07F0
0000
0000
0FF0
0FF0
0000
0000
0000
0000
0000
0000
0000
0000
0000
0000
0000
0000
0000
0000
ENDCHAR
STARTCHAR 0x00AB
ENCODING 171
SWIDTH 698 0
DWIDTH 16 0
BBX 16 32 0 -6
BITMAP
0000
0000
0000
0000
0000
0000
0000
0000
0000
0000
0000
0000
01CE
039C
0738
0E70
1CE0
39C0
7380
7380
39C0
1CE0
0E70
0738
039C
01CE
0000
0000
0000
0000
0000
0000
ENDCHAR
STARTCHAR 0x00AC
ENCODING 172
SWIDTH 698 0
DWIDTH 16 0
BBX 16 32 0 -6
BITMAP
0000
0000
0000
0000
0000
0000
0000
0000
0000
0000
0000
0000
0000
3FFC
3FFC
000C
000C
000C
000C
000C
000C
0000
0000
0000
0000
0000
0000
0000
0000
0000
0000
0000
ENDCHAR
STARTCHAR 0x00AD
ENCODING 173
SWIDTH 698 0
DWIDTH 16 0
BBX 16 32 0 -6
BITMAP
0000
0000
0000
0000
0000
0000
0000
0000
0000
0000
0000
0000
0000
0000
0000
0000
1FF8
1FF8
0000
0000
0000
0000
0000
0000
0000
0000
0000
0000
0000
0000
0000
0000
ENDCHAR
STARTCHAR 0x00AE
ENCODING 174
SWIDTH 698 0
DWIDTH 16 0
BBX 16 32 0 -6
BITMAP
0000
0000
0000
0000
0000
0000
0000
0000
0FF0
1FF8
381C
300C
33CC
37EC
366C
37EC
37CC
366C
366C
366C
300C
381C
1FF8
0FF0
0000
0000
0000
0000
0000
0000
0000
0000
ENDCHAR
STARTCHAR 0x00AF
ENCODING 175
SWIDTH 698 0
DWIDTH 16 0
BBX 16 32 0 -6
BITMAP
0000
0000
0FF0
0FF0
0000
0000
0000
0000
0000
0000
0000
0000
0000
0000
0000
0000
0000
0000
0000
0000
0000
0000
0000
0000
0000
0000
0000
0000
0000
0000
0000
0000
ENDCHAR
STARTCHAR 0x00B0
ENCODING 176
SWIDTH 698 0
DWIDTH 16 0
BBX 16 32 0 -6
BITMAP
0000
0000
0000
0000
0000
03C0
07E0
0E70
0C30
0C30
0C30
0E70
07E0
03C0
0000
0000
0000
0000
0000
0000
0000
0000
0000
0000
0000
0000
0000
0000
0000
0000
0000
0000
ENDCHAR
STARTCHAR 0x00B1
ENCODING 177
SWIDTH 698 0
DWIDTH 16 0
BBX 16 32 0 -6
BITMAP
0000
0000
0000
0000
0000
0000
0000
0000
0000
0000
0180
0180
0180
0180
1FF8
1FF8
0180
0180
0180
0180
0000
0000
1FF8
1FF8
0000
0000
0000
0000
0000
0000
0000
0000
ENDCHAR
STARTCHAR 0x00B2
ENCODING 178
SWIDTH 698 0
DWIDTH 16 0
BBX 16 32 0 -6
BITMAP
0000
0000
0000
0000
0000
03C0
07E0
0C30
0030
0030
0060
00C0
0180
0300
0630
0FF0
0FF0
0000
0000
0000
0000
0000
0000
0000
0000
0000
0000
0000
0000
0000
0000
0000
ENDCHAR
STARTCHAR 0x00B3
ENCODING 179
SWIDTH 698 0
DWIDTH 16 0
BBX 16 32 0 -6
BITMAP
0000
0000
0000
0000
0000
03C0
07E0
0C30
0030
0030
01E0
01E0
0030
0030
0C30
07E0
03C0
0000
0000
0000
0000
0000
0000
0000
0000
0000
0000
0000
0000
0000
0000
0000
ENDCHAR
STARTCHAR 0x00B4
ENCODING 180
SWIDTH 698 0
DWIDTH 16 0
BBX 16 32 0 -6
BITMAP
0000
0000
0000
0000
0030
0070
00E0
01C0
0380
0300
0000
0000
0000
0000
0000
0000
0000
0000
0000
0000
0000
0000
0000
0000
0000
0000
0000
0000
0000
0000
0000
0000
ENDCHAR
STARTCHAR 0x00B5
ENCODING 181
SWIDTH 698 0
DWIDTH 16 0
BBX 16 32 0 -6
BITMAP
0000
0000
0000
0000
0000
0000
0000
0000
0000
0000
0000
0000
3030
3030
3030
3030
3030
3030
3030
3030
3030
3030
3030
3878
3FFE
37CE
3000
3000
3000
3000
3000
3000
ENDCHAR
STARTCHAR 0x00B6
ENCODING 182
SWIDTH 698 0
DWIDTH 16 0
BBX 16 32 0 -6
BITMAP
0000
0000
0000
0000
0000
0000
0FFC
1FFC
398C
318C
318C
318C
318C
398C
1F8C
0F8C
018C
018C
018C
018C
018C
018C
018C
018C
018C
018C
0000
0000
0000
0000
0000
0000
ENDCHAR
STARTCHAR 0x00B7
ENCODING 183
SWIDTH 698 0
DWIDTH 16 0
BBX 16 32 0 -6
BITMAP
0000
0000
0000
0000
0000
0000
0000
0000
0000
0000
0000
0000
0000
0000
0180
0180
0180
0000
0000
0000
0000
0000
0000
0000
0000
0000
0000
0000
0000
0000
0000
0000
ENDCHAR
STARTCHAR 0x00B8
ENCODING 184
SWIDTH 698 0
DWIDTH 16 0
BBX 16 32 0 -6
BITMAP
0000
0000
0000
0000
0000
0000
0000
0000
0000
0000
0000
0000
0000
0000
0000
0000
0000
0000
0000
0000
0000
0000
0000
0000
0000
0000
0180
0180
0180
0380
0700
0600
ENDCHAR
STARTCHAR 0x00B9
ENCODING 185
SWIDTH 698 0
DWIDTH 16 0
BBX 16 32 0 -6
BITMAP
0000
0000
0000
0000
0000
0180
0380
0780
0580
0180
0180
0180
0180
0180
0180
07E0
07E0
0000
0000
0000
0000
0000
0000
0000
0000
0000
0000
0000
0000
0000
0000
0000
ENDCHAR
STARTCHAR 0x00BA
ENCODING 186
SWIDTH 698 0
DWIDTH 16 0
BBX 16 32 0 -6
BITMAP
0000
0000
0000
0000
0000
03C0
07E0
0E70
0C30
0C30
0C30
0E70
07E0
03C0
0000
0000
0FF0
0FF0
0000
0000
0000
0000
0000
0000
0000
0000
0000
0000
0000
0000
0000
0000
ENDCHAR
STARTCHAR 0x00BB
ENCODING 187
SWIDTH 698 0
DWIDTH 16 0
BBX 16 32 0 -6
BITMAP
0000
0000
0000
0000
0000
0000
0000
0000
0000
0000
0000
0000
7380
39C0
1CE0
0E70
0738
039C
01CE
01CE
039C
0738
0E70
1CE0
39C0
7380
0000
0000
0000
0000
0000
0000
ENDCHAR
STARTCHAR 0x00BC
ENCODING 188
SWIDTH 698 0
DWIDTH 16 0
BBX 16 32 0 -6
BITMAP
0000
0000
1800
3800
7800
5800
1800
1800
1800
1806
180E
181C
7E38
7E70
00E0
01C0
0380
0700
0E00
1D80
3980
7198
6198
0198
0198
01FE
01FE
0018
0018
0018
0000
0000
ENDCHAR
STARTCHAR 0x00BD
ENCODING 189
SWIDTH 698 0
DWIDTH 16 0
BBX 16 32 0 -6
BITMAP
0000
0000
1800
3800
7800
5800
1800
1800
1800
1806
180E
181C
7E38
7E70
00E0
01C0
0380
0700
0E78
1CFC
3986
7006
6006
000C
0018
0030
0060
00C6
01FE
01FE
0000
0000
ENDCHAR
STARTCHAR 0x00BE
ENCODING 190
SWIDTH 698 0
DWIDTH 16 0
BBX 16 32 0 -6
BITMAP
0000
0000
1E00
3F00
6180
0180
0180
0F00
0F00
0186
018E
619C
3F38
1E70
00E0
01C0
0380
0700
0E00
1D80
3980
7198
6198
0198
0198
01FE
01FE
0018
0018
0018
0000
0000
ENDCHAR
STARTCHAR 0x00BF
ENCODING 191
SWIDTH 698 0
DWIDTH 16 0
BBX 16 32 0 -6
BITMAP
0000
0000
0000
0000
0000
0000
0180
0180
0180
0000
0000
0000
0180
0180
0180
0300
0300
0600
0C00
1800
3000
3000
300C
381C
1FF8
0FF0
0000
0000
0000
0000
0000
0000
ENDCHAR
STARTCHAR 0x00C0
ENCODING 192
SWIDTH 698 0
DWIDTH 16 0
BBX 16 32 0 -6
BITMAP
0000
0700
0380
01C0
00E0
0000
0FF0
1FF8
381C
300C
300C
300C
300C
300C
3FFC
3FFC
300C
300C
300C
300C
300C
300C
300C
300C
300C
300C
0000
0000
0000
0000
0000
0000
ENDCHAR
STARTCHAR 0x00C1
ENCODING 193
SWIDTH 698 0
DWIDTH 16 0
BBX 16 32 0 -6
BITMAP
0000
00E0
01C0
0380
0700
0000
0FF0
1FF8
381C
300C
300C
300C
300C
300C
3FFC
3FFC
300C
300C
300C
300C
300C
300C
300C
300C
300C
300C
0000
0000
0000
0000
0000
0000
ENDCHAR
STARTCHAR 0x00C2
ENCODING 194
SWIDTH 698 0
DWIDTH 16 0
BBX 16 32 0 -6
BITMAP
0180
03C0
07E0
0E70
0000
0000
0FF0
1FF8
381C
300C
300C
300C
300C
300C
3FFC
3FFC
300C
300C
300C
300C
300C
300C
300C
300C
300C
300C
0000
0000
0000
0000
0000
0000
ENDCHAR
STARTCHAR 0x00C3
ENCODING 195
SWIDTH 698 0
DWIDTH 16 0
BBX 16 32 0 -6
BITMAP
0000
0F0C
1F8C
39FC
30F8
0000
0FF0
1FF8
381C
300C
300C
300C
300C
300C
3FFC
3FFC
300C
300C
300C
300C
300C
300C
300C
300C
300C
300C
0000
0000
0000
0000
0000
0000
ENDCHAR
STARTCHAR 0x00C4
ENCODING 196
SWIDTH 698 0
DWIDTH 16 0
BBX 16 32 0 -6
BITMAP
0000
0C30
0C30
0C30
0000
0000
0FF0
1FF8
381C
300C
300C
300C
300C
300C
3FFC
3FFC
300C
300C
300C
300C
300C
300C
300C
300C
300C
300C
0000
0000
0000
0000
0000
0000
ENDCHAR
STARTCHAR 0x00C5
ENCODING 197
SWIDTH 698 0
DWIDTH 16 0
BBX 16 32 0 -6
BITMAP
0000
0180
03C0
0660
0660
03C0
0FF0
1FF8
381C
300C
300C
300C
300C
300C
3FFC
3FFC
300C
300C
300C
300C
300C
300C
300C
300C
300C
300C
0000
0000
0000
0000
0000
0000
ENDCHAR
STARTCHAR 0x00C6
ENCODING 198
SWIDTH 698 0
DWIDTH 16 0
BBX 16 32 0 -6
BITMAP
0000
0000
0000
0000
0000
0000
0FFC
1FFC
38C0
30C0
30C0
30C0
30C0
30C0
3FFC
3FFC
30C0
30C0
30C0
30C0
30C0
30C0
30C0
30C0
30FC
30FC
0000
0000
0000
0000
0000
0000
ENDCHAR
STARTCHAR 0x00C7
ENCODING 199
SWIDTH 698 0
DWIDTH 16 0
BBX 16 32 0 -6
BITMAP
0000
0000
0000
0000
0000
0000
0FFC
1FFC
380C
300C
3000
3000
3000
3000
3000
3000
3000
3000
3000
3000
3000
3000
3000
3800
1FFC
0FFC
00C0
00C0
00C0
01C0
0380
0300
ENDCHAR
STARTCHAR 0x00C8
ENCODING 200
SWIDTH 698 0
DWIDTH 16 0
BBX 16 32 0 -6
BITMAP
0000
0700
0380
01C0
00E0
0000
0FFC
1FFC
3800
3000
3000
3000
3000
3000
3FE0
3FE0
3000
3000
3000
3000
3000
3000
3000
3800
1FFC
0FFC
0000
0000
0000
0000
0000
0000
ENDCHAR
STARTCHAR 0x00C9
ENCODING 201
SWIDTH 698 0
DWIDTH 16 0
BBX 16 32 0 -6
BITMAP
0000
00E0
01C0
0380
0700
0000
0FFC
1FFC
3800
3000
3000
3000
3000
3000
3FE0
3FE0
3000
3000
3000
3000
3000
3000
3000
3800
1FFC
0FFC
0000
0000
0000
0000
0000
0000
ENDCHAR
STARTCHAR 0x00CA
ENCODING 202
SWIDTH 698 0
DWIDTH 16 0
BBX 16 32 0 -6
BITMAP
0180
03C0
07E0
0E70
0000
0000
0FFC
1FFC
3800
3000
3000
3000
3000
3000
3FE0
3FE0
3000
3000
3000
3000
3000
3000
3000
3800
1FFC
0FFC
0000
0000
0000
0000
0000
0000
ENDCHAR
STARTCHAR 0x00CB
ENCODING 203
SWIDTH 698 0
DWIDTH 16 0
BBX 16 32 0 -6
BITMAP
0000
0C30
0C30
0C30
0000
0000
0FFC
1FFC
3800
3000
3000
3000
3000
3000
3FE0
3FE0
3000
3000
3000
3000
3000
3000
3000
3800
1FFC
0FFC
0000
0000
0000
0000
0000
0000
ENDCHAR
STARTCHAR 0x00CC
ENCODING 204
SWIDTH 698 0
DWIDTH 16 0
BBX 16 32 0 -6
BITMAP
0000
0700
0380
01C0
00E0
0000
1FF8
1FF8
0180
0180
0180
0180
0180
0180
0180
0180
0180
0180
0180
0180
0180
0180
0180
0180
1FF8
1FF8
0000
0000
0000
0000
0000
0000
ENDCHAR
STARTCHAR 0x00CD
ENCODING 205
SWIDTH 698 0
DWIDTH 16 0
BBX 16 32 0 -6
BITMAP
0000
00E0
01C0
0380
0700
0000
1FF8
1FF8
0180
0180
0180
0180
0180
0180
0180
0180
0180
0180
0180
0180
0180
0180
0180
0180
1FF8
1FF8
0000
0000
0000
0000
0000
0000
ENDCHAR
STARTCHAR 0x00CE
ENCODING 206
SWIDTH 698 0
DWIDTH 16 0
BBX 16 32 0 -6
BITMAP
0180
03C0
07E0
0E70
0000
0000
1FF8
1FF8
0180
0180
0180
0180
0180
0180
0180
0180
0180
0180
0180
0180
0180
0180
0180
0180
1FF8
1FF8
0000
0000
0000
0000
0000
0000
ENDCHAR
STARTCHAR 0x00CF
ENCODING 207
SWIDTH 698 0
DWIDTH 16 0
BBX 16 32 0 -6
BITMAP
0000
0C30
0C30
0C30
0000
0000
1FF8
1FF8
0180
0180
0180
0180
0180
0180
0180
0180
0180
0180
0180
0180
0180
0180
0180
0180
1FF8
1FF8
0000
0000
0000
0000
0000
0000
ENDCHAR
STARTCHAR 0x00D0
ENCODING 208
SWIDTH 698 0
DWIDTH 16 0
BBX 16 32 0 -6
BITMAP
0000
0000
0000
0000
0000
0000
3FF0
3FF8
301C
300C
300C
300C
300C
300C
300C
FF0C
FF0C
300C
300C
300C
300C
300C
300C
301C
3FF8
3FF0
0000
0000
0000
0000
0000
0000
ENDCHAR
STARTCHAR 0x00D1
ENCODING 209
SWIDTH 698 0
DWIDTH 16 0
BBX 16 32 0 -6
BITMAP
0000
0F0C
1F8C
39FC
30F8
0000
300C
300C
380C
380C
3C0C
3C0C
360C
360C
330C
330C
318C
318C
30CC
30CC
306C
306C
303C
303C
301C
301C
0000
0000
0000
0000
0000
0000
ENDCHAR
STARTCHAR 0x00D2
ENCODING 210
SWIDTH 698 0
DWIDTH 16 0
BBX 16 32 0 -6
BITMAP
0000
0700
0380
01C0
00E0
0000
0FF0
1FF8
381C
300C
300C
300C
300C
300C
300C
300C
300C
300C
300C
300C
300C
300C
300C
381C
1FF8
0FF0
0000
0000
0000
0000
0000
0000
ENDCHAR
STARTCHAR 0x00D3
ENCODING 211
SWIDTH 698 0
DWIDTH 16 0
BBX 16 32 0 -6
BITMAP
0000
00E0
01C0
0380
0700
0000
0FF0
1FF8
381C
300C
300C
300C
300C
300C
300C
300C
300C
300C
300C
300C
300C
300C
300C
381C
1FF8
0FF0
0000
0000
0000
0000
0000
0000
ENDCHAR
STARTCHAR 0x00D4
ENCODING 212
SWIDTH 698 0
DWIDTH 16 0
BBX 16 32 0 -6
BITMAP
0180
03C0
07E0
0E70
0000
0000
0FF0
1FF8
381C
300C
300C
300C
300C
300C
300C
300C
300C
300C
300C
300C
300C
300C
300C
381C
1FF8
0FF0
0000
0000
0000
0000
0000
0000
ENDCHAR
STARTCHAR 0x00D5
ENCODING 213
SWIDTH 698 0
DWIDTH 16 0
BBX 16 32 0 -6
BITMAP
0000
0F0C
1F8C
39FC
30F8
0000
0FF0
1FF8
381C
300C
300C
300C
300C
300C
300C
300C
300C
300C
300C
300C
300C
300C
300C
381C
1FF8
0FF0
0000
0000
0000
0000
0000
0000
ENDCHAR
STARTCHAR 0x00D6
ENCODING 214
SWIDTH 698 0
DWIDTH 16 0
BBX 16 32 0 -6
BITMAP
0000
0C30
0C30
0C30
0000
0000
0FF0
1FF8
381C
300C
300C
300C
300C
300C
300C
300C
300C
300C
300C
300C
300C
300C
300C
381C
1FF8
0FF0
0000
0000
0000
0000
0000
0000
ENDCHAR
STARTCHAR 0x00D7
ENCODING 215
SWIDTH 698 0
DWIDTH 16 0
BBX 16 32 0 -6
BITMAP
0000
0000
0000
0000
0000
0000
0000
0000
0000
0000
300C
381C
1C38
0E70
07E0
03C0
03C0
07E0
0E70
1C38
381C
300C
0000
0000
0000
0000
0000
0000
0000
0000
0000
0000
ENDCHAR
STARTCHAR 0x00D8
ENCODING 216
SWIDTH 698 0
DWIDTH 16 0
BBX 16 32 0 -6
BITMAP
0000
0000
0000
0000
000C
000C
0FF8
1FF8
383C
303C
306C
306C
30CC
30CC
318C
318C
330C
330C
360C
360C
3C0C
3C0C
380C
381C
3FF8
3FF0
6000
6000
0000
0000
0000
0000
ENDCHAR
STARTCHAR 0x00D9
ENCODING 217
SWIDTH 698 0
DWIDTH 16 0
BBX 16 32 0 -6
BITMAP
0000
0700
0380
01C0
00E0
0000
300C
300C
300C
300C
300C
300C
300C
300C
300C
300C
300C
300C
300C
300C
300C
300C
300C
380C
1FFC
0FFC
0000
0000
0000
0000
0000
0000
ENDCHAR
STARTCHAR 0x00DA
ENCODING 218
SWIDTH 698 0
DWIDTH 16 0
BBX 16 32 0 -6
BITMAP
0000
00E0
01C0
0380
0700
0000
300C
300C
300C
300C
300C
300C
300C
300C
300C
300C
300C
300C
300C
300C
300C
300C
300C
380C
1FFC
0FFC
0000
0000
0000
0000
0000
0000
ENDCHAR
STARTCHAR 0x00DB
ENCODING 219
SWIDTH 698 0
DWIDTH 16 0
BBX 16 32 0 -6
BITMAP
0180
03C0
07E0
0E70
0000
0000
300C
300C
300C
300C
300C
300C
300C
300C
300C
300C
300C
300C
300C
300C
300C
300C
300C
380C
1FFC
0FFC
0000
0000
0000
0000
0000
0000
ENDCHAR
STARTCHAR 0x00DC
ENCODING 220
SWIDTH 698 0
DWIDTH 16 0
BBX 16 32 0 -6
BITMAP
0000
0C30
0C30
0C30
0000
0000
300C
300C
300C
300C
300C
300C
300C
300C
300C
300C
300C
300C
300C
300C
300C
300C
300C
380C
1FFC
0FFC
0000
0000
0000
0000
0000
0000
ENDCHAR
STARTCHAR 0x00DD
ENCODING 221
SWIDTH 698 0
DWIDTH 16 0
BBX 16 32 0 -6
BITMAP
0000
00E0
01C0
0380
0700
0000
300C
300C
300C
300C
300C
300C
300C
380C
1FFC
0FFC
000C
000C
000C
000C
000C
000C
000C
001C
3FF8
3FF0
0000
0000
0000
0000
0000
0000
ENDCHAR
STARTCHAR 0x00DE
ENCODING 222
SWIDTH 698 0
DWIDTH 16 0
BBX 16 32 0 -6
BITMAP
0000
0000
0000
0000
0000
0000
0000
0000
3000
3000
3000
3000
3FF0
3FF8
301C
300C
300C
300C
300C
300C
300C
300C
300C
301C
3FF8
3FF0
3000
3000
3000
3000
0000
0000
ENDCHAR
STARTCHAR 0x00DF
ENCODING 223
SWIDTH 698 0
DWIDTH 16 0
BBX 16 32 0 -6
BITMAP
0000
0000
0000
0000
0000
0000
0FC0
1FE0
3870
3030
3030
3030
3030
3070
3FE0
3FC0
31F0
3078
301C
300C
300C
300C
3C0C
3E1C
37F8
33F0
0000
0000
0000
0000
0000
0000
ENDCHAR
STARTCHAR 0x00E0
ENCODING 224
SWIDTH 698 0
DWIDTH 16 0
BBX 16 32 0 -6
BITMAP
0000
0000
0000
0000
0600
0700
0380
01C0
00E0
0060
0000
0000
1FF0
1FF8
001C
000C
000C
0FFC
1FFC
380C
300C
300C
300C
380C
1FFC
0FFC
0000
0000
0000
0000
0000
0000
ENDCHAR
STARTCHAR 0x00E1
ENCODING 225
SWIDTH 698 0
DWIDTH 16 0
BBX 16 32 0 -6
BITMAP
0000
0000
0000
0000
0030
0070
00E0
01C0
0380
0300
0000
0000
1FF0
1FF8
001C
000C
000C
0FFC
1FFC
380C
300C
300C
300C
380C
1FFC
0FFC
0000
0000
0000
0000
0000
0000
ENDCHAR
STARTCHAR 0x00E2
ENCODING 226
SWIDTH 698 0
DWIDTH 16 0
BBX 16 32 0 -6
BITMAP
0000
0000
0000
0000
0180
03C0
07E0
0E70
1C38
1818
0000
0000
1FF0
1FF8
001C
000C
000C
0FFC
1FFC
380C
300C
300C
300C
380C
1FFC
0FFC
0000
0000
0000
0000
0000
0000
ENDCHAR
STARTCHAR 0x00E3
ENCODING 227
SWIDTH 698 0
DWIDTH 16 0
BBX 16 32 0 -6
BITMAP
0000
0000
0000
0000
0E0C
1F0C
3B9C
31F8
30F0
0000
0000
0000
1FF0
1FF8
001C
000C
000C
0FFC
1FFC
380C
300C
300C
300C
380C
1FFC
0FFC
0000
0000
0000
0000
0000
0000
ENDCHAR
STARTCHAR 0x00E4
ENCODING 228
SWIDTH 698 0
DWIDTH 16 0
BBX 16 32 0 -6
BITMAP
0000
0000
0000
0000
0000
0000
0C30
0C30
0C30
0000
0000
0000
1FF0
1FF8
001C
000C
000C
0FFC
1FFC
380C
300C
300C
300C
380C
1FFC
0FFC
0000
0000
0000
0000
0000
0000
ENDCHAR
STARTCHAR 0x00E5
ENCODING 229
SWIDTH 698 0
DWIDTH 16 0
BBX 16 32 0 -6
BITMAP
0000
0000
0000
0000
01C0
03E0
0630
0630
0630
03E0
01C0
0000
1FF0
1FF8
001C
000C
000C
0FFC
1FFC
380C
300C
300C
300C
380C
1FFC
0FFC
0000
0000
0000
0000
0000
0000
ENDCHAR
STARTCHAR 0x00E6
ENCODING 230
SWIDTH 698 0
DWIDTH 16 0
BBX 16 32 0 -6
BITMAP
0000
0000
0000
0000
0000
0000
0000
0000
0000
0000
0000
0000
1F3F
1FFF
01E3
00C3
00C3
0FC3
1FFF
38FF
30C0
30C0
30C0
39E0
1FFF
0F3F
0000
0000
0000
0000
0000
0000
ENDCHAR
STARTCHAR 0x00E7
ENCODING 231
SWIDTH 698 0
DWIDTH 16 0
BBX 16 32 0 -6
BITMAP
0000
0000
0000
0000
0000
0000
0000
0000
0000
0000
0000
0000
0FFC
1FFC
380C
300C
3000
3000
3000
3000
3000
3000
3000
3800
1FFC
0FFC
00C0
00C0
00C0
01C0
0380
0300
ENDCHAR
STARTCHAR 0x00E8
ENCODING 232
SWIDTH 698 0
DWIDTH 16 0
BBX 16 32 0 -6
BITMAP
0000
0000
0000
0000
0600
0700
0380
01C0
00E0
0060
0000
0000
0FFC
1FFC
380C
300C
300C
300C
3FFC
3FFC
3000
3000
3000
3800
1FFC
0FFC
0000
0000
0000
0000
0000
0000
ENDCHAR
STARTCHAR 0x00E9
ENCODING 233
SWIDTH 698 0
DWIDTH 16 0
BBX 16 32 0 -6
BITMAP
0000
0000
0000
0000
0030
0070
00E0
01C0
0380
0300
0000
0000
0FFC
1FFC
380C
300C
300C
300C
3FFC
3FFC
3000
3000
3000
3800
1FFC
0FFC
0000
0000
0000
0000
0000
0000
ENDCHAR
STARTCHAR 0x00EA
ENCODING 234
SWIDTH 698 0
DWIDTH 16 0
BBX 16 32 0 -6
BITMAP
0000
0000
0000
0000
0180
03C0
07E0
0E70
1C38
1818
0000
0000
0FFC
1FFC
380C
300C
300C
300C
3FFC
3FFC
3000
3000
3000
3800
1FFC
0FFC
0000
0000
0000
0000
0000
0000
ENDCHAR
STARTCHAR 0x00EB
ENCODING 235
SWIDTH 698 0
DWIDTH 16 0
BBX 16 32 0 -6
BITMAP
0000
0000
0000
0000
0000
0000
0C30
0C30
0C30
0000
0000
0000
0FFC
1FFC
380C
300C
300C
300C
3FFC
3FFC
3000
3000
3000
3800
1FFC
0FFC
0000
0000
0000
0000
0000
0000
ENDCHAR
STARTCHAR 0x00EC
ENCODING 236
SWIDTH 698 0
DWIDTH 16 0
BBX 16 32 0 -6
BITMAP
0000
0000
0000
0000
0600
0700
0380
01C0
00E0
0060
0000
0000
0180
0180
0180
0180
0180
0180
0180
0180
0180
0180
0180
0180
0180
0180
0000
0000
0000
0000
0000
0000
ENDCHAR
STARTCHAR 0x00ED
ENCODING 237
SWIDTH 698 0
DWIDTH 16 0
BBX 16 32 0 -6
BITMAP
0000
0000
0000
0000
0060
00E0
01C0
0380
0700
0600
0000
0000
0180
0180
0180
0180
0180
0180
0180
0180
0180
0180
0180
0180
0180
0180
0000
0000
0000
0000
0000
0000
ENDCHAR
STARTCHAR 0x00EE
ENCODING 238
SWIDTH 698 0
DWIDTH 16 0
BBX 16 32 0 -6
BITMAP
0000
0000
0000
0000
0180
03C0
07E0
0E70
1C38
1818
0000
0000
0180
0180
0180
0180
0180
0180
0180
0180
0180
0180
0180
0180
0180
0180
0000
0000
0000
0000
0000
0000
ENDCHAR
STARTCHAR 0x00EF
ENCODING 239
SWIDTH 698 0
DWIDTH 16 0
BBX 16 32 0 -6
BITMAP
0000
0000
0000
0000
0000
0000
0C30
0C30
0C30
0000
0000
0000
0180
0180
0180
0180
0180
0180
0180
0180
0180
0180
0180
0180
0180
0180
0000
0000
0000
0000
0000
0000
ENDCHAR
STARTCHAR 0x00F0
ENCODING 240
SWIDTH 698 0
DWIDTH 16 0
BBX 16 32 0 -6
BITMAP
0000
0000
0000
0000
0000
1980
1980
0F00
0F00
1F80
19C0
00E0
0FF0
1FF8
381C
300C
300C
300C
300C
300C
300C
300C
300C
381C
1FF8
0FF0
0000
0000
0000
0000
0000
0000
ENDCHAR
STARTCHAR 0x00F1
ENCODING 241
SWIDTH 698 0
DWIDTH 16 0
BBX 16 32 0 -6
BITMAP
0000
0000
0000
0000
0E0C
1F0C
3B9C
31F8
30F0
0000
0000
0000
0FFC
1FFC
380C
300C
300C
300C
300C
300C
300C
300C
300C
300C
300C
300C
0000
0000
0000
0000
0000
0000
ENDCHAR
STARTCHAR 0x00F2
ENCODING 242
SWIDTH 698 0
DWIDTH 16 0
BBX 16 32 0 -6
BITMAP
0000
0000
0000
0000
0600
0700
0380
01C0
00E0
0060
0000
0000
0FF0
1FF8
381C
300C
300C
300C
300C
300C
300C
300C
300C
381C
1FF8
0FF0
0000
0000
0000
0000
0000
0000
ENDCHAR
STARTCHAR 0x00F3
ENCODING 243
SWIDTH 698 0
DWIDTH 16 0
BBX 16 32 0 -6
BITMAP
0000
0000
0000
0000
0060
00E0
01C0
0380
0700
0600
0000
0000
0FF0
1FF8
381C
300C
300C
300C
300C
300C
300C
300C
300C
381C
1FF8
0FF0
0000
0000
0000
0000
0000
0000
ENDCHAR
STARTCHAR 0x00F4
ENCODING 244
SWIDTH 698 0
DWIDTH 16 0
BBX 16 32 0 -6
BITMAP
0000
0000
0000
0000
0180
03C0
07E0
0E70
1C38
1818
0000
0000
0FF0
1FF8
381C
300C
300C
300C
300C
300C
300C
300C
300C
381C
1FF8
0FF0
0000
0000
0000
0000
0000
0000
ENDCHAR
STARTCHAR 0x00F5
ENCODING 245
SWIDTH 698 0
DWIDTH 16 0
BBX 16 32 0 -6
BITMAP
0000
0000
0000
0000
0E0C
1F0C
3B9C
31F8
30F0
0000
0000
0000
0FF0
1FF8
381C
300C
300C
300C
300C
300C
300C
300C
300C
381C
1FF8
0FF0
0000
0000
0000
0000
0000
0000
ENDCHAR
STARTCHAR 0x00F6
ENCODING 246
SWIDTH 698 0
DWIDTH 16 0
BBX 16 32 0 -6
BITMAP
0000
0000
0000
0000
0000
0000
0C30
0C30
0C30
0000
0000
0000
0FF0
1FF8
381C
300C
300C
300C
300C
300C
300C
300C
300C
381C
1FF8
0FF0
0000
0000
0000
0000
0000
0000
ENDCHAR
STARTCHAR 0x00F7
ENCODING 247
SWIDTH 698 0
DWIDTH 16 0
BBX 16 32 0 -6
BITMAP
0000
0000
0000
0000
0000
0000
0000
0000
0000
0000
0000
0180
0180
0180
0000
0000
1FF8
1FF8
0000
0000
0180
0180
0180
0000
0000
0000
0000
0000
0000
0000
0000
0000
ENDCHAR
STARTCHAR 0x00F8
ENCODING 248
SWIDTH 698 0
DWIDTH 16 0
BBX 16 32 0 -6
BITMAP
0000
0000
0000
0000
0000
0000
0000
0000
0000
0000
0000
0000
0FF6
1FFE
381C
303C
307C
30EC
31CC
338C
370C
3E0C
3C0C
381C
7FF8
6FF0
0000
0000
0000
0000
0000
0000
ENDCHAR
STARTCHAR 0x00F9
ENCODING 249
SWIDTH 698 0
DWIDTH 16 0
BBX 16 32 0 -6
BITMAP
0000
0000
0000
0000
0600
0700
0380
01C0
00E0
0060
0000
0000
300C
300C
300C
300C
300C
300C
300C
300C
300C
300C
300C
380C
1FFC
0FFC
0000
0000
0000
0000
0000
0000
ENDCHAR
STARTCHAR 0x00FA
ENCODING 250
SWIDTH 698 0
DWIDTH 16 0
BBX 16 32 0 -6
BITMAP
0000
0000
0000
0000
0060
00E0
01C0
0380
0700
0600
0000
0000
300C
300C
300C
300C
300C
300C
300C
300C
300C
300C
300C
380C
1FFC
0FFC
0000
0000
0000
0000
0000
0000
ENDCHAR
STARTCHAR 0x00FB
ENCODING 251
SWIDTH 698 0
DWIDTH 16 0
BBX 16 32 0 -6
BITMAP
0000
0000
0000
0000
0180
03C0
07E0
0E70
1C38
1818
0000
0000
300C
300C
300C
300C
300C
300C
300C
300C
300C
300C
300C
380C
1FFC
0FFC
0000
0000
0000
0000
0000
0000
ENDCHAR
STARTCHAR 0x00FC
ENCODING 252
SWIDTH 698 0
DWIDTH 16 0
BBX 16 32 0 -6
BITMAP
0000
0000
0000
0000
0000
0000
0C30
0C30
0C30
0000
0000
0000
300C
300C
300C
300C
300C
300C
300C
300C
300C
300C
300C
380C
1FFC
0FFC
0000
0000
0000
0000
0000
0000
ENDCHAR
STARTCHAR 0x00FD
ENCODING 253
SWIDTH 698 0
DWIDTH 16 0
BBX 16 32 0 -6
BITMAP
0000
0000
0000
0000
0060
00E0
01C0
0380
0700
0600
0000
0000
300C
300C
300C
300C
300C
300C
300C
300C
300C
300C
300C
380C
1FFC
0FFC
000C
000C
000C
001C
3FF8
3FF0
ENDCHAR
STARTCHAR 0x00FE
ENCODING 254
SWIDTH 698 0
DWIDTH 16 0
BBX 16 32 0 -6
BITMAP
0000
0000
0000
0000
0000
0000
3000
3000
3000
3000
3000
3000
3FF0
3FF8
301C
300C
300C
300C
300C
300C
300C
300C
300C
301C
3FF8
3FF0
3000
3000
3000
3000
3000
3000
ENDCHAR
STARTCHAR 0x00FF
ENCODING 255
SWIDTH 698 0
DWIDTH 16 0
BBX 16 32 0 -6
BITMAP
0000
0000
0000
0000
0000
0000
0C30
0C30
0C30
0000
0000
0000
300C
300C
300C
300C
300C
300C
300C
300C
300C
300C
300C
380C
1FFC
0FFC
000C
000C
000C
001C
3FF8
3FF0
ENDCHAR
ENDFONT
