STARTFONT 2.1
COMMENT /*
COMMENT  * Spleen 6x12 1.7.1
COMMENT  * Copyright (c) 2018-2020, Frederic Cambus
COMMENT  * https://www.cambus.net/
COMMENT  *
COMMENT  * Created:      2020-04-08
COMMENT  * Last Updated: 2020-06-23
COMMENT  *
COMMENT  * Spleen is released under the BSD 2-Clause license.
COMMENT  * See LICENSE file for details.
COMMENT  */
FONT -misc-spleen-medium-r-normal--12-120-72-72-C-60-ISO10646-1
SIZE 12 72 72
FONTBOUNDINGBOX 6 12 0 -3
STARTPROPERTIES 19
FAMILY_NAME "Spleen"
FONT_VERSION "1.7.0"
FOUNDRY "misc"
SLANT "R"
SETWIDTH_NAME "Normal"
PIXEL_SIZE 12
POINT_SIZE 120
RESOLUTION_X 72
RESOLUTION_Y 72
SPACING "C"
AVERAGE_WIDTH 60
CHARSET_REGISTRY "ISO10646"
CHARSET_ENCODING "1"
MIN_SPACE 6
FONT_DESCENT 3
FONT_ASCENT 9
COPYRIGHT "Copyright (c) 2020, Frederic Cambus"
DEFAULT_CHAR 32
_GBDFED_INFO "Edited with gbdfed 1.6."
ENDPROPERTIES
CHARS 96
STARTCHAR SPACE
ENCODING 32
SWIDTH 500 0
DWIDTH 6 0
BBX 6 12 0 -3
BITMAP
00
00
00
00
00
00
00
00
00
00
00
00
ENDCHAR
STARTCHAR EXCLAMATION MARK
ENCODING 33
SWIDTH 500 0
DWIDTH 6 0
BBX 6 12 0 -3
BITMAP
00
20
20
20
20
20
20
00
20
00
00
00
ENDCHAR
STARTCHAR QUOTATION MARK
ENCODING 34
SWIDTH 500 0
DWIDTH 6 0
BBX 6 12 0 -3
BITMAP
00
00
50
50
50
00
00
00
00
00
00
00
ENDCHAR
STARTCHAR NUMBER SIGN
ENCODING 35
SWIDTH 500 0
DWIDTH 6 0
BBX 6 12 0 -3
BITMAP
00
00
50
F8
50
50
50
F8
50
00
00
00
ENDCHAR
STARTCHAR DOLLAR SIGN
ENCODING 36
SWIDTH 500 0
DWIDTH 6 0
BBX 6 12 0 -3
BITMAP
20
78
A0
A0
70
28
28
28
F0
20
00
00
ENDCHAR
STARTCHAR PERCENT SIGN
ENCODING 37
SWIDTH 500 0
DWIDTH 6 0
BBX 6 12 0 -3
BITMAP
00
00
10
90
A0
20
40
50
90
80
00
00
ENDCHAR
STARTCHAR AMPERSAND
ENCODING 38
SWIDTH 500 0
DWIDTH 6 0
BBX 6 12 0 -3
BITMAP
00
30
48
48
30
60
94
88
74
00
00
00
ENDCHAR
STARTCHAR APOSTROPHE
ENCODING 39
SWIDTH 500 0
DWIDTH 6 0
BBX 6 12 0 -3
BITMAP
00
00
20
20
20
00
00
00
00
00
00
00
ENDCHAR
STARTCHAR LEFT PARENTHESIS
ENCODING 40
SWIDTH 500 0
DWIDTH 6 0
BBX 6 12 0 -3
BITMAP
00
00
10
20
40
40
40
40
20
10
00
00
ENDCHAR
STARTCHAR RIGHT PARENTHESIS
ENCODING 41
SWIDTH 500 0
DWIDTH 6 0
BBX 6 12 0 -3
BITMAP
00
00
40
20
10
10
10
10
20
40
00
00
ENDCHAR
STARTCHAR ASTERISK
ENCODING 42
SWIDTH 500 0
DWIDTH 6 0
BBX 6 12 0 -3
BITMAP
00
00
00
00
90
60
F0
60
90
00
00
00
ENDCHAR
STARTCHAR PLUS SIGN
ENCODING 43
SWIDTH 500 0
DWIDTH 6 0
BBX 6 12 0 -3
BITMAP
00
00
00
00
20
20
F8
20
20
00
00
00
ENDCHAR
STARTCHAR COMMA
ENCODING 44
SWIDTH 500 0
DWIDTH 6 0
BBX 6 12 0 -3
BITMAP
00
00
00
00
00
00
00
20
20
40
00
00
ENDCHAR
STARTCHAR HYPHEN-MINUS
ENCODING 45
SWIDTH 500 0
DWIDTH 6 0
BBX 6 12 0 -3
BITMAP
00
00
00
00
00
00
F0
00
00
00
00
00
ENDCHAR
STARTCHAR FULL STOP
ENCODING 46
SWIDTH 500 0
DWIDTH 6 0
BBX 6 12 0 -3
BITMAP
00
00
00
00
00
00
00
00
20
00
00
00
ENDCHAR
STARTCHAR SOLIDUS
ENCODING 47
SWIDTH 500 0
DWIDTH 6 0
BBX 6 12 0 -3
BITMAP
00
08
08
10
10
20
20
40
40
80
80
00
ENDCHAR
STARTCHAR DIGIT ZERO
ENCODING 48
SWIDTH 500 0
DWIDTH 6 0
BBX 6 12 0 -3
BITMAP
00
70
88
98
A8
C8
88
88
70
00
00
00
ENDCHAR
STARTCHAR DIGIT ONE
ENCODING 49
SWIDTH 500 0
DWIDTH 6 0
BBX 6 12 0 -3
BITMAP
00
20
60
20
20
20
20
20
70
00
00
00
ENDCHAR
STARTCHAR DIGIT TWO
ENCODING 50
SWIDTH 500 0
DWIDTH 6 0
BBX 6 12 0 -3
BITMAP
00
70
88
08
08
70
80
80
F8
00
00
00
ENDCHAR
STARTCHAR DIGIT THREE
ENCODING 51
SWIDTH 500 0
DWIDTH 6 0
BBX 6 12 0 -3
BITMAP
00
70
88
08
30
08
08
88
70
00
00
00
ENDCHAR
STARTCHAR DIGIT FOUR
ENCODING 52
SWIDTH 500 0
DWIDTH 6 0
BBX 6 12 0 -3
BITMAP
00
80
80
90
90
90
F8
10
10
00
00
00
ENDCHAR
STARTCHAR DIGIT FIVE
ENCODING 53
SWIDTH 500 0
DWIDTH 6 0
BBX 6 12 0 -3
BITMAP
00
F8
80
80
F0
08
08
08
F0
00
00
00
ENDCHAR
STARTCHAR DIGIT SIX
ENCODING 54
SWIDTH 500 0
DWIDTH 6 0
BBX 6 12 0 -3
BITMAP
00
70
80
80
F0
88
88
88
70
00
00
00
ENDCHAR
STARTCHAR DIGIT SEVEN
ENCODING 55
SWIDTH 500 0
DWIDTH 6 0
BBX 6 12 0 -3
BITMAP
00
F8
88
08
10
20
20
20
20
00
00
00
ENDCHAR
STARTCHAR DIGIT EIGHT
ENCODING 56
SWIDTH 500 0
DWIDTH 6 0
BBX 6 12 0 -3
BITMAP
00
70
88
88
70
88
88
88
70
00
00
00
ENDCHAR
STARTCHAR DIGIT NINE
ENCODING 57
SWIDTH 500 0
DWIDTH 6 0
BBX 6 12 0 -3
BITMAP
00
70
88
88
88
78
08
08
70
00
00
00
ENDCHAR
STARTCHAR COLON
ENCODING 58
SWIDTH 500 0
DWIDTH 6 0
BBX 6 12 0 -3
BITMAP
00
00
00
00
00
20
00
00
20
00
00
00
ENDCHAR
STARTCHAR SEMICOLON
ENCODING 59
SWIDTH 500 0
DWIDTH 6 0
BBX 6 12 0 -3
BITMAP
00
00
00
00
00
20
00
20
20
40
00
00
ENDCHAR
STARTCHAR LESS-THAN SIGN
ENCODING 60
SWIDTH 500 0
DWIDTH 6 0
BBX 6 12 0 -3
BITMAP
00
08
10
20
40
40
20
10
08
00
00
00
ENDCHAR
STARTCHAR EQUALS SIGN
ENCODING 61
SWIDTH 500 0
DWIDTH 6 0
BBX 6 12 0 -3
BITMAP
00
00
00
00
00
F0
00
F0
00
00
00
00
ENDCHAR
STARTCHAR GREATER-THAN SIGN
ENCODING 62
SWIDTH 500 0
DWIDTH 6 0
BBX 6 12 0 -3
BITMAP
00
40
20
10
08
08
10
20
40
00
00
00
ENDCHAR
STARTCHAR QUESTION MARK
ENCODING 63
SWIDTH 500 0
DWIDTH 6 0
BBX 6 12 0 -3
BITMAP
00
70
88
08
10
20
20
00
20
00
00
00
ENDCHAR
STARTCHAR COMMERCIAL AT
ENCODING 64
SWIDTH 500 0
DWIDTH 6 0
BBX 6 12 0 -3
BITMAP
00
70
88
88
B8
B8
B8
80
78
00
00
00
ENDCHAR
STARTCHAR LATIN CAPITAL LETTER A
ENCODING 65
SWIDTH 500 0
DWIDTH 6 0
BBX 6 12 0 -3
BITMAP
00
70
88
88
88
F8
88
88
88
00
00
00
ENDCHAR
STARTCHAR LATIN CAPITAL LETTER B
ENCODING 66
SWIDTH 500 0
DWIDTH 6 0
BBX 6 12 0 -3
BITMAP
00
F0
88
88
F0
88
88
88
F0
00
00
00
ENDCHAR
STARTCHAR LATIN CAPITAL LETTER C
ENCODING 67
SWIDTH 500 0
DWIDTH 6 0
BBX 6 12 0 -3
BITMAP
00
78
80
80
80
80
80
80
78
00
00
00
ENDCHAR
STARTCHAR LATIN CAPITAL LETTER D
ENCODING 68
SWIDTH 500 0
DWIDTH 6 0
BBX 6 12 0 -3
BITMAP
00
F0
88
88
88
88
88
88
F0
00
00
00
ENDCHAR
STARTCHAR LATIN CAPITAL LETTER E
ENCODING 69
SWIDTH 500 0
DWIDTH 6 0
BBX 6 12 0 -3
BITMAP
00
78
80
80
F0
80
80
80
78
00
00
00
ENDCHAR
STARTCHAR LATIN CAPITAL LETTER F
ENCODING 70
SWIDTH 500 0
DWIDTH 6 0
BBX 6 12 0 -3
BITMAP
00
78
80
80
F0
80
80
80
80
00
00
00
ENDCHAR
STARTCHAR LATIN CAPITAL LETTER G
ENCODING 71
SWIDTH 500 0
DWIDTH 6 0
BBX 6 12 0 -3
BITMAP
00
78
80
80
B8
88
88
88
78
00
00
00
ENDCHAR
STARTCHAR LATIN CAPITAL LETTER H
ENCODING 72
SWIDTH 500 0
DWIDTH 6 0
BBX 6 12 0 -3
BITMAP
00
88
88
88
F8
88
88
88
88
00
00
00
ENDCHAR
STARTCHAR LATIN CAPITAL LETTER I
ENCODING 73
SWIDTH 500 0
DWIDTH 6 0
BBX 6 12 0 -3
BITMAP
00
70
20
20
20
20
20
20
70
00
00
00
ENDCHAR
STARTCHAR LATIN CAPITAL LETTER J
ENCODING 74
SWIDTH 500 0
DWIDTH 6 0
BBX 6 12 0 -3
BITMAP
00
70
20
20
20
20
20
20
C0
00
00
00
ENDCHAR
STARTCHAR LATIN CAPITAL LETTER K
ENCODING 75
SWIDTH 500 0
DWIDTH 6 0
BBX 6 12 0 -3
BITMAP
00
88
88
90
E0
90
88
88
88
00
00
00
ENDCHAR
STARTCHAR LATIN CAPITAL LETTER L
ENCODING 76
SWIDTH 500 0
DWIDTH 6 0
BBX 6 12 0 -3
BITMAP
00
80
80
80
80
80
80
80
78
00
00
00
ENDCHAR
STARTCHAR LATIN CAPITAL LETTER M
ENCODING 77
SWIDTH 500 0
DWIDTH 6 0
BBX 6 12 0 -3
BITMAP
00
88
D8
F8
A8
88
88
88
88
00
00
00
ENDCHAR
STARTCHAR LATIN CAPITAL LETTER N
ENCODING 78
SWIDTH 500 0
DWIDTH 6 0
BBX 6 12 0 -3
BITMAP
00
88
C8
C8
A8
A8
98
98
88
00
00
00
ENDCHAR
STARTCHAR LATIN CAPITAL LETTER O
ENCODING 79
SWIDTH 500 0
DWIDTH 6 0
BBX 6 12 0 -3
BITMAP
00
70
88
88
88
88
88
88
70
00
00
00
ENDCHAR
STARTCHAR LATIN CAPITAL LETTER P
ENCODING 80
SWIDTH 500 0
DWIDTH 6 0
BBX 6 12 0 -3
BITMAP
00
F0
88
88
88
F0
80
80
80
00
00
00
ENDCHAR
STARTCHAR LATIN CAPITAL LETTER Q
ENCODING 81
SWIDTH 500 0
DWIDTH 6 0
BBX 6 12 0 -3
BITMAP
00
70
88
88
88
88
88
88
70
18
00
00
ENDCHAR
STARTCHAR LATIN CAPITAL LETTER R
ENCODING 82
SWIDTH 500 0
DWIDTH 6 0
BBX 6 12 0 -3
BITMAP
00
F0
88
88
88
F0
88
88
88
00
00
00
ENDCHAR
STARTCHAR LATIN CAPITAL LETTER S
ENCODING 83
SWIDTH 500 0
DWIDTH 6 0
BBX 6 12 0 -3
BITMAP
00
78
80
80
70
08
08
08
F0
00
00
00
ENDCHAR
STARTCHAR LATIN CAPITAL LETTER T
ENCODING 84
SWIDTH 500 0
DWIDTH 6 0
BBX 6 12 0 -3
BITMAP
00
F8
20
20
20
20
20
20
20
00
00
00
ENDCHAR
STARTCHAR LATIN CAPITAL LETTER U
ENCODING 85
SWIDTH 500 0
DWIDTH 6 0
BBX 6 12 0 -3
BITMAP
00
88
88
88
88
88
88
88
78
00
00
00
ENDCHAR
STARTCHAR LATIN CAPITAL LETTER V
ENCODING 86
SWIDTH 500 0
DWIDTH 6 0
BBX 6 12 0 -3
BITMAP
00
88
88
88
88
88
88
70
70
00
00
00
ENDCHAR
STARTCHAR LATIN CAPITAL LETTER W
ENCODING 87
SWIDTH 500 0
DWIDTH 6 0
BBX 6 12 0 -3
BITMAP
00
88
88
88
88
A8
F8
D8
88
00
00
00
ENDCHAR
STARTCHAR LATIN CAPITAL LETTER X
ENCODING 88
SWIDTH 500 0
DWIDTH 6 0
BBX 6 12 0 -3
BITMAP
00
88
88
50
20
50
88
88
88
00
00
00
ENDCHAR
STARTCHAR LATIN CAPITAL LETTER Y
ENCODING 89
SWIDTH 500 0
DWIDTH 6 0
BBX 6 12 0 -3
BITMAP
00
88
88
88
88
78
08
08
F0
00
00
00
ENDCHAR
STARTCHAR LATIN CAPITAL LETTER Z
ENCODING 90
SWIDTH 500 0
DWIDTH 6 0
BBX 6 12 0 -3
BITMAP
00
F8
08
10
20
40
80
80
F8
00
00
00
ENDCHAR
STARTCHAR LEFT SQUARE BRACKET
ENCODING 91
SWIDTH 500 0
DWIDTH 6 0
BBX 6 12 0 -3
BITMAP
00
00
70
40
40
40
40
40
40
70
00
00
ENDCHAR
STARTCHAR REVERSE SOLIDUS
ENCODING 92
SWIDTH 500 0
DWIDTH 6 0
BBX 6 12 0 -3
BITMAP
00
80
80
40
40
20
20
10
10
08
08
00
ENDCHAR
STARTCHAR RIGHT SQUARE BRACKET
ENCODING 93
SWIDTH 500 0
DWIDTH 6 0
BBX 6 12 0 -3
BITMAP
00
00
70
10
10
10
10
10
10
70
00
00
ENDCHAR
STARTCHAR CIRCUMFLEX ACCENT
ENCODING 94
SWIDTH 500 0
DWIDTH 6 0
BBX 6 12 0 -3
BITMAP
00
00
00
20
50
88
00
00
00
00
00
00
ENDCHAR
STARTCHAR LOW LINE
ENCODING 95
SWIDTH 500 0
DWIDTH 6 0
BBX 6 12 0 -3
BITMAP
00
00
00
00
00
00
00
00
00
F0
00
00
ENDCHAR
STARTCHAR GRAVE ACCENT
ENCODING 96
SWIDTH 500 0
DWIDTH 6 0
BBX 6 12 0 -3
BITMAP
00
00
40
20
00
00
00
00
00
00
00
00
ENDCHAR
STARTCHAR LATIN SMALL LETTER A
ENCODING 97
SWIDTH 500 0
DWIDTH 6 0
BBX 6 12 0 -3
BITMAP
00
00
00
70
08
78
88
88
78
00
00
00
ENDCHAR
STARTCHAR LATIN SMALL LETTER B
ENCODING 98
SWIDTH 500 0
DWIDTH 6 0
BBX 6 12 0 -3
BITMAP
00
80
80
F0
88
88
88
88
F0
00
00
00
ENDCHAR
STARTCHAR LATIN SMALL LETTER C
ENCODING 99
SWIDTH 500 0
DWIDTH 6 0
BBX 6 12 0 -3
BITMAP
00
00
00
78
80
80
80
80
78
00
00
00
ENDCHAR
STARTCHAR LATIN SMALL LETTER D
ENCODING 100
SWIDTH 500 0
DWIDTH 6 0
BBX 6 12 0 -3
BITMAP
00
08
08
78
88
88
88
88
78
00
00
00
ENDCHAR
STARTCHAR LATIN SMALL LETTER E
ENCODING 101
SWIDTH 500 0
DWIDTH 6 0
BBX 6 12 0 -3
BITMAP
00
00
00
78
88
88
F8
80
78
00
00
00
ENDCHAR
STARTCHAR LATIN SMALL LETTER F
ENCODING 102
SWIDTH 500 0
DWIDTH 6 0
BBX 6 12 0 -3
BITMAP
00
38
40
40
F0
40
40
40
40
00
00
00
ENDCHAR
STARTCHAR LATIN SMALL LETTER G
ENCODING 103
SWIDTH 500 0
DWIDTH 6 0
BBX 6 12 0 -3
BITMAP
00
00
00
78
88
88
88
88
70
08
F0
00
ENDCHAR
STARTCHAR LATIN SMALL LETTER H
ENCODING 104
SWIDTH 500 0
DWIDTH 6 0
BBX 6 12 0 -3
BITMAP
00
80
80
F0
88
88
88
88
88
00
00
00
ENDCHAR
STARTCHAR LATIN SMALL LETTER I
ENCODING 105
SWIDTH 500 0
DWIDTH 6 0
BBX 6 12 0 -3
BITMAP
00
20
00
60
20
20
20
20
30
00
00
00
ENDCHAR
STARTCHAR LATIN SMALL LETTER J
ENCODING 106
SWIDTH 500 0
DWIDTH 6 0
BBX 6 12 0 -3
BITMAP
00
10
00
10
10
10
10
10
10
60
00
00
ENDCHAR
STARTCHAR LATIN SMALL LETTER K
ENCODING 107
SWIDTH 500 0
DWIDTH 6 0
BBX 6 12 0 -3
BITMAP
00
80
80
90
A0
C0
A0
90
88
00
00
00
ENDCHAR
STARTCHAR LATIN SMALL LETTER L
ENCODING 108
SWIDTH 500 0
DWIDTH 6 0
BBX 6 12 0 -3
BITMAP
00
40
40
40
40
40
40
40
30
00
00
00
ENDCHAR
STARTCHAR LATIN SMALL LETTER M
ENCODING 109
SWIDTH 500 0
DWIDTH 6 0
BBX 6 12 0 -3
BITMAP
00
00
00
F0
A8
A8
A8
88
88
00
00
00
ENDCHAR
STARTCHAR LATIN SMALL LETTER N
ENCODING 110
SWIDTH 500 0
DWIDTH 6 0
BBX 6 12 0 -3
BITMAP
00
00
00
F0
88
88
88
88
88
00
00
00
ENDCHAR
STARTCHAR LATIN SMALL LETTER O
ENCODING 111
SWIDTH 500 0
DWIDTH 6 0
BBX 6 12 0 -3
BITMAP
00
00
00
70
88
88
88
88
70
00
00
00
ENDCHAR
STARTCHAR LATIN SMALL LETTER P
ENCODING 112
SWIDTH 500 0
DWIDTH 6 0
BBX 6 12 0 -3
BITMAP
00
00
00
F0
88
88
88
88
F0
80
80
80
ENDCHAR
STARTCHAR LATIN SMALL LETTER Q
ENCODING 113
SWIDTH 500 0
DWIDTH 6 0
BBX 6 12 0 -3
BITMAP
00
00
00
78
88
88
88
88
78
08
08
08
ENDCHAR
STARTCHAR LATIN SMALL LETTER R
ENCODING 114
SWIDTH 500 0
DWIDTH 6 0
BBX 6 12 0 -3
BITMAP
00
00
00
78
88
80
80
80
80
00
00
00
ENDCHAR
STARTCHAR LATIN SMALL LETTER S
ENCODING 115
SWIDTH 500 0
DWIDTH 6 0
BBX 6 12 0 -3
BITMAP
00
00
00
78
80
70
08
08
F0
00
00
00
ENDCHAR
STARTCHAR LATIN SMALL LETTER T
ENCODING 116
SWIDTH 500 0
DWIDTH 6 0
BBX 6 12 0 -3
BITMAP
00
40
40
E0
40
40
40
40
30
00
00
00
ENDCHAR
STARTCHAR LATIN SMALL LETTER U
ENCODING 117
SWIDTH 500 0
DWIDTH 6 0
BBX 6 12 0 -3
BITMAP
00
00
00
88
88
88
88
88
78
00
00
00
ENDCHAR
STARTCHAR LATIN SMALL LETTER V
ENCODING 118
SWIDTH 500 0
DWIDTH 6 0
BBX 6 12 0 -3
BITMAP
00
00
00
88
88
88
88
50
20
00
00
00
ENDCHAR
STARTCHAR LATIN SMALL LETTER W
ENCODING 119
SWIDTH 500 0
DWIDTH 6 0
BBX 6 12 0 -3
BITMAP
00
00
00
88
88
A8
F8
D8
88
00
00
00
ENDCHAR
STARTCHAR LATIN SMALL LETTER X
ENCODING 120
SWIDTH 500 0
DWIDTH 6 0
BBX 6 12 0 -3
BITMAP
00
00
00
88
88
70
70
88
88
00
00
00
ENDCHAR
STARTCHAR LATIN SMALL LETTER Y
ENCODING 121
SWIDTH 500 0
DWIDTH 6 0
BBX 6 12 0 -3
BITMAP
00
00
00
88
88
88
88
88
78
08
08
F0
ENDCHAR
STARTCHAR LATIN SMALL LETTER Z
ENCODING 122
SWIDTH 500 0
DWIDTH 6 0
BBX 6 12 0 -3
BITMAP
00
00
00
F8
08
10
20
40
F8
00
00
00
ENDCHAR
STARTCHAR LEFT CURLY BRACKET
ENCODING 123
SWIDTH 500 0
DWIDTH 6 0
BBX 6 12 0 -3
BITMAP
00
00
30
40
40
C0
C0
40
40
30
00
00
ENDCHAR
STARTCHAR VERTICAL LINE
ENCODING 124
SWIDTH 500 0
DWIDTH 6 0
BBX 6 12 0 -3
BITMAP
00
00
00
20
20
20
20
20
20
00
00
00
ENDCHAR
STARTCHAR RIGHT CURLY BRACKET
ENCODING 125
SWIDTH 500 0
DWIDTH 6 0
BBX 6 12 0 -3
BITMAP
00
00
C0
20
20
30
30
20
20
C0
00
00
ENDCHAR
STARTCHAR TILDE
ENCODING 126
SWIDTH 500 0
DWIDTH 6 0
BBX 6 12 0 -3
BITMAP
00
00
00
48
B0
00
00
00
00
00
00
00
ENDCHAR
STARTCHAR <control>
ENCODING 127
SWIDTH 500 0
DWIDTH 6 0
BBX 6 12 0 -3
BITMAP
00
00
00
00
00
00
00
00
00
00
00
00
ENDCHAR
ENDFONT
