STARTFONT 2.1
COMMENT /*
COMMENT  * Spleen 8x16 2.0.2
COMMENT  * Copyright (c) 2018-2023, Frederic Cambus
COMMENT  * https://www.cambus.net/
COMMENT  *
COMMENT  * Created:      2018-08-11
COMMENT  * Last Updated: 2023-05-26
COMMENT  *
COMMENT  * Spleen is released under the BSD 2-Clause license.
COMMENT  * See LICENSE file for details.
COMMENT  *
COMMENT  * SPDX-License-Identifier: BSD-2-Clause
COMMENT  */
FONT -misc-spleen-medium-r-normal--16-160-72-72-C-80-ibm-437
SIZE 16 72 72
FONTBOUNDINGBOX 8 16 0 -4
STARTPROPERTIES 20
FAMILY_NAME "Spleen"
WEIGHT_NAME "Medium"
FONT_VERSION "2.0.2"
FOUNDRY "misc"
SLANT "R"
SETWIDTH_NAME "Normal"
PIXEL_SIZE 16
POINT_SIZE 160
RESOLUTION_X 72
RESOLUTION_Y 72
SPACING "C"
AVERAGE_WIDTH 80
CHARSET_REGISTRY "ibm"
CHARSET_ENCODING "437"
MIN_SPACE 8
FONT_ASCENT 12
FONT_DESCENT 4
COPYRIGHT "Copyright (c) 2018-2023, Frederic Cambus"
DEFAULT_CHAR 32
_GBDFED_INFO "Edited with gbdfed 1.6."
ENDPROPERTIES
CHARS 256
STARTCHAR <control>
ENCODING 0
SWIDTH 500 0
DWIDTH 8 0
BBX 8 16 0 -4
BITMAP
00
00
00
00
00
00
00
00
00
00
00
00
00
00
00
00
ENDCHAR
STARTCHAR <control>
ENCODING 1
SWIDTH 500 0
DWIDTH 8 0
BBX 8 16 0 -4
BITMAP
00
00
7E
81
A5
81
81
A5
99
81
81
7E
00
00
00
00
ENDCHAR
STARTCHAR <control>
ENCODING 2
SWIDTH 500 0
DWIDTH 8 0
BBX 8 16 0 -4
BITMAP
00
00
7E
FF
DB
FF
FF
DB
E7
FF
FF
7E
00
00
00
00
ENDCHAR
STARTCHAR <control>
ENCODING 3
SWIDTH 500 0
DWIDTH 8 0
BBX 8 16 0 -4
BITMAP
00
00
00
00
6C
FE
FE
FE
7C
38
10
00
00
00
00
00
ENDCHAR
STARTCHAR <control>
ENCODING 4
SWIDTH 500 0
DWIDTH 8 0
BBX 8 16 0 -4
BITMAP
00
00
00
00
10
38
7C
FE
7C
38
10
00
00
00
00
00
ENDCHAR
STARTCHAR <control>
ENCODING 5
SWIDTH 500 0
DWIDTH 8 0
BBX 8 16 0 -4
BITMAP
00
00
00
18
3C
3C
E7
E7
E7
18
18
3C
00
00
00
00
ENDCHAR
STARTCHAR <control>
ENCODING 6
SWIDTH 500 0
DWIDTH 8 0
BBX 8 16 0 -4
BITMAP
00
00
00
18
3C
7E
FF
FF
7E
18
18
3C
00
00
00
00
ENDCHAR
STARTCHAR <control>
ENCODING 7
SWIDTH 500 0
DWIDTH 8 0
BBX 8 16 0 -4
BITMAP
00
00
00
00
00
00
18
3C
3C
18
00
00
00
00
00
00
ENDCHAR
STARTCHAR <control>
ENCODING 8
SWIDTH 500 0
DWIDTH 8 0
BBX 8 16 0 -4
BITMAP
FF
FF
FF
FF
FF
FF
E7
C3
C3
E7
FF
FF
FF
FF
FF
FF
ENDCHAR
STARTCHAR <control>
ENCODING 9
SWIDTH 500 0
DWIDTH 8 0
BBX 8 16 0 -4
BITMAP
00
00
00
00
00
3C
66
66
66
66
3C
00
00
00
00
00
ENDCHAR
STARTCHAR <control>
ENCODING 10
SWIDTH 500 0
DWIDTH 8 0
BBX 8 16 0 -4
BITMAP
FF
FF
FF
FF
FF
C3
99
99
99
99
C3
FF
FF
FF
FF
FF
ENDCHAR
STARTCHAR <control>
ENCODING 11
SWIDTH 500 0
DWIDTH 8 0
BBX 8 16 0 -4
BITMAP
00
00
0F
07
0D
19
3C
66
66
66
66
3C
00
00
00
00
ENDCHAR
STARTCHAR <control>
ENCODING 12
SWIDTH 500 0
DWIDTH 8 0
BBX 8 16 0 -4
BITMAP
00
00
3C
66
66
66
66
3C
18
3C
18
18
00
00
00
00
ENDCHAR
STARTCHAR <control>
ENCODING 13
SWIDTH 500 0
DWIDTH 8 0
BBX 8 16 0 -4
BITMAP
00
00
7E
66
7E
60
60
60
60
60
C0
C0
00
00
00
00
ENDCHAR
STARTCHAR <control>
ENCODING 14
SWIDTH 500 0
DWIDTH 8 0
BBX 8 16 0 -4
BITMAP
00
00
7E
66
7E
66
66
66
66
66
6E
CC
C0
00
00
00
ENDCHAR
STARTCHAR <control>
ENCODING 15
SWIDTH 500 0
DWIDTH 8 0
BBX 8 16 0 -4
BITMAP
00
00
00
18
18
DB
3C
E7
3C
DB
18
18
00
00
00
00
ENDCHAR
STARTCHAR <control>
ENCODING 16
SWIDTH 500 0
DWIDTH 8 0
BBX 8 16 0 -4
BITMAP
80
C0
E0
F0
F8
FC
FE
FF
FF
FE
FC
F8
F0
E0
C0
80
ENDCHAR
STARTCHAR <control>
ENCODING 17
SWIDTH 500 0
DWIDTH 8 0
BBX 8 16 0 -4
BITMAP
01
03
07
0F
1F
3F
7F
FF
FF
7F
3F
1F
0F
07
03
01
ENDCHAR
STARTCHAR <control>
ENCODING 18
SWIDTH 500 0
DWIDTH 8 0
BBX 8 16 0 -4
BITMAP
00
00
18
3C
7E
18
18
18
18
7E
3C
18
00
00
00
00
ENDCHAR
STARTCHAR <control>
ENCODING 19
SWIDTH 500 0
DWIDTH 8 0
BBX 8 16 0 -4
BITMAP
00
00
66
66
66
66
66
66
66
00
66
66
00
00
00
00
ENDCHAR
STARTCHAR <control>
ENCODING 20
SWIDTH 500 0
DWIDTH 8 0
BBX 8 16 0 -4
BITMAP
00
00
7E
D6
D6
D6
76
16
16
16
16
16
00
00
00
00
ENDCHAR
STARTCHAR <control>
ENCODING 21
SWIDTH 500 0
DWIDTH 8 0
BBX 8 16 0 -4
BITMAP
00
3C
66
60
30
3C
66
66
66
66
3C
0C
06
66
3C
00
ENDCHAR
STARTCHAR <control>
ENCODING 22
SWIDTH 500 0
DWIDTH 8 0
BBX 8 16 0 -4
BITMAP
00
00
00
00
00
00
00
00
FE
FE
FE
FE
00
00
00
00
ENDCHAR
STARTCHAR <control>
ENCODING 23
SWIDTH 500 0
DWIDTH 8 0
BBX 8 16 0 -4
BITMAP
00
00
18
3C
7E
18
18
18
18
7E
3C
18
7E
00
00
00
ENDCHAR
STARTCHAR <control>
ENCODING 24
SWIDTH 500 0
DWIDTH 8 0
BBX 8 16 0 -4
BITMAP
00
00
18
3C
7E
18
18
18
18
18
18
18
00
00
00
00
ENDCHAR
STARTCHAR <control>
ENCODING 25
SWIDTH 500 0
DWIDTH 8 0
BBX 8 16 0 -4
BITMAP
00
00
18
18
18
18
18
18
18
7E
3C
18
00
00
00
00
ENDCHAR
STARTCHAR <control>
ENCODING 26
SWIDTH 500 0
DWIDTH 8 0
BBX 8 16 0 -4
BITMAP
00
00
00
00
00
08
04
FE
04
08
00
00
00
00
00
00
ENDCHAR
STARTCHAR <control>
ENCODING 27
SWIDTH 500 0
DWIDTH 8 0
BBX 8 16 0 -4
BITMAP
00
00
00
00
00
20
40
FE
40
20
00
00
00
00
00
00
ENDCHAR
STARTCHAR <control>
ENCODING 28
SWIDTH 500 0
DWIDTH 8 0
BBX 8 16 0 -4
BITMAP
00
00
00
00
00
00
C0
C0
C0
FE
00
00
00
00
00
00
ENDCHAR
STARTCHAR <control>
ENCODING 29
SWIDTH 500 0
DWIDTH 8 0
BBX 8 16 0 -4
BITMAP
00
00
00
00
00
28
6C
FE
6C
28
00
00
00
00
00
00
ENDCHAR
STARTCHAR <control>
ENCODING 30
SWIDTH 500 0
DWIDTH 8 0
BBX 8 16 0 -4
BITMAP
00
00
00
00
00
10
38
38
7C
7C
FE
FE
00
00
00
00
ENDCHAR
STARTCHAR <control>
ENCODING 31
SWIDTH 500 0
DWIDTH 8 0
BBX 8 16 0 -4
BITMAP
00
00
00
00
00
FE
FE
7C
7C
38
38
10
00
00
00
00
ENDCHAR
STARTCHAR defaultchar
ENCODING 32
SWIDTH 500 0
DWIDTH 8 0
BBX 8 16 0 -4
BITMAP
00
00
00
00
00
00
00
00
00
00
00
00
00
00
00
00
ENDCHAR
STARTCHAR EXCLAMATION MARK
ENCODING 33
SWIDTH 500 0
DWIDTH 8 0
BBX 8 16 0 -4
BITMAP
00
00
18
18
18
18
18
18
18
00
18
18
00
00
00
00
ENDCHAR
STARTCHAR QUOTATION MARK
ENCODING 34
SWIDTH 500 0
DWIDTH 8 0
BBX 8 16 0 -4
BITMAP
00
66
66
66
66
00
00
00
00
00
00
00
00
00
00
00
ENDCHAR
STARTCHAR NUMBER SIGN
ENCODING 35
SWIDTH 500 0
DWIDTH 8 0
BBX 8 16 0 -4
BITMAP
00
00
6C
6C
FE
6C
6C
6C
6C
FE
6C
6C
00
00
00
00
ENDCHAR
STARTCHAR DOLLAR SIGN
ENCODING 36
SWIDTH 500 0
DWIDTH 8 0
BBX 8 16 0 -4
BITMAP
00
10
7E
D0
D0
D0
7C
16
16
16
16
FC
10
00
00
00
ENDCHAR
STARTCHAR PERCENT SIGN
ENCODING 37
SWIDTH 500 0
DWIDTH 8 0
BBX 8 16 0 -4
BITMAP
00
00
06
66
6C
0C
18
18
30
36
66
60
00
00
00
00
ENDCHAR
STARTCHAR AMPERSAND
ENCODING 38
SWIDTH 500 0
DWIDTH 8 0
BBX 8 16 0 -4
BITMAP
00
00
38
6C
6C
6C
38
70
DA
CC
CC
7A
00
00
00
00
ENDCHAR
STARTCHAR APOSTROPHE
ENCODING 39
SWIDTH 500 0
DWIDTH 8 0
BBX 8 16 0 -4
BITMAP
00
18
18
18
18
00
00
00
00
00
00
00
00
00
00
00
ENDCHAR
STARTCHAR LEFT PARENTHESIS
ENCODING 40
SWIDTH 500 0
DWIDTH 8 0
BBX 8 16 0 -4
BITMAP
00
0E
18
30
30
60
60
60
60
30
30
18
0E
00
00
00
ENDCHAR
STARTCHAR RIGHT PARENTHESIS
ENCODING 41
SWIDTH 500 0
DWIDTH 8 0
BBX 8 16 0 -4
BITMAP
00
70
18
0C
0C
06
06
06
06
0C
0C
18
70
00
00
00
ENDCHAR
STARTCHAR ASTERISK
ENCODING 42
SWIDTH 500 0
DWIDTH 8 0
BBX 8 16 0 -4
BITMAP
00
00
00
00
66
3C
18
FF
18
3C
66
00
00
00
00
00
ENDCHAR
STARTCHAR PLUS SIGN
ENCODING 43
SWIDTH 500 0
DWIDTH 8 0
BBX 8 16 0 -4
BITMAP
00
00
00
00
00
18
18
7E
18
18
00
00
00
00
00
00
ENDCHAR
STARTCHAR COMMA
ENCODING 44
SWIDTH 500 0
DWIDTH 8 0
BBX 8 16 0 -4
BITMAP
00
00
00
00
00
00
00
00
00
00
18
18
30
00
00
00
ENDCHAR
STARTCHAR HYPHEN-MINUS
ENCODING 45
SWIDTH 500 0
DWIDTH 8 0
BBX 8 16 0 -4
BITMAP
00
00
00
00
00
00
00
7E
00
00
00
00
00
00
00
00
ENDCHAR
STARTCHAR FULL STOP
ENCODING 46
SWIDTH 500 0
DWIDTH 8 0
BBX 8 16 0 -4
BITMAP
00
00
00
00
00
00
00
00
00
00
18
18
00
00
00
00
ENDCHAR
STARTCHAR SOLIDUS
ENCODING 47
SWIDTH 500 0
DWIDTH 8 0
BBX 8 16 0 -4
BITMAP
00
06
06
0C
0C
18
18
30
30
60
60
C0
C0
00
00
00
ENDCHAR
STARTCHAR DIGIT ZERO
ENCODING 48
SWIDTH 500 0
DWIDTH 8 0
BBX 8 16 0 -4
BITMAP
00
00
7C
C6
C6
CE
DE
F6
E6
C6
C6
7C
00
00
00
00
ENDCHAR
STARTCHAR DIGIT ONE
ENCODING 49
SWIDTH 500 0
DWIDTH 8 0
BBX 8 16 0 -4
BITMAP
00
00
18
38
78
58
18
18
18
18
18
7E
00
00
00
00
ENDCHAR
STARTCHAR DIGIT TWO
ENCODING 50
SWIDTH 500 0
DWIDTH 8 0
BBX 8 16 0 -4
BITMAP
00
00
7C
C6
06
06
0C
18
30
60
C6
FE
00
00
00
00
ENDCHAR
STARTCHAR DIGIT THREE
ENCODING 51
SWIDTH 500 0
DWIDTH 8 0
BBX 8 16 0 -4
BITMAP
00
00
7C
C6
06
06
3C
06
06
06
C6
7C
00
00
00
00
ENDCHAR
STARTCHAR DIGIT FOUR
ENCODING 52
SWIDTH 500 0
DWIDTH 8 0
BBX 8 16 0 -4
BITMAP
00
00
C0
C0
CC
CC
CC
CC
FE
0C
0C
0C
00
00
00
00
ENDCHAR
STARTCHAR DIGIT FIVE
ENCODING 53
SWIDTH 500 0
DWIDTH 8 0
BBX 8 16 0 -4
BITMAP
00
00
FE
C6
C0
C0
FC
06
06
06
C6
7C
00
00
00
00
ENDCHAR
STARTCHAR DIGIT SIX
ENCODING 54
SWIDTH 500 0
DWIDTH 8 0
BBX 8 16 0 -4
BITMAP
00
00
7C
C6
C0
C0
FC
C6
C6
C6
C6
7C
00
00
00
00
ENDCHAR
STARTCHAR DIGIT SEVEN
ENCODING 55
SWIDTH 500 0
DWIDTH 8 0
BBX 8 16 0 -4
BITMAP
00
00
FE
C6
06
06
0C
18
30
30
30
30
00
00
00
00
ENDCHAR
STARTCHAR DIGIT EIGHT
ENCODING 56
SWIDTH 500 0
DWIDTH 8 0
BBX 8 16 0 -4
BITMAP
00
00
7C
C6
C6
C6
7C
C6
C6
C6
C6
7C
00
00
00
00
ENDCHAR
STARTCHAR DIGIT NINE
ENCODING 57
SWIDTH 500 0
DWIDTH 8 0
BBX 8 16 0 -4
BITMAP
00
00
7C
C6
C6
C6
C6
7E
06
06
C6
7C
00
00
00
00
ENDCHAR
STARTCHAR COLON
ENCODING 58
SWIDTH 500 0
DWIDTH 8 0
BBX 8 16 0 -4
BITMAP
00
00
00
00
00
18
18
00
00
00
18
18
00
00
00
00
ENDCHAR
STARTCHAR SEMICOLON
ENCODING 59
SWIDTH 500 0
DWIDTH 8 0
BBX 8 16 0 -4
BITMAP
00
00
00
00
00
18
18
00
00
00
18
18
30
00
00
00
ENDCHAR
STARTCHAR LESS-THAN SIGN
ENCODING 60
SWIDTH 500 0
DWIDTH 8 0
BBX 8 16 0 -4
BITMAP
00
00
06
0C
18
30
60
60
30
18
0C
06
00
00
00
00
ENDCHAR
STARTCHAR EQUALS SIGN
ENCODING 61
SWIDTH 500 0
DWIDTH 8 0
BBX 8 16 0 -4
BITMAP
00
00
00
00
00
7E
00
00
7E
00
00
00
00
00
00
00
ENDCHAR
STARTCHAR GREATER-THAN SIGN
ENCODING 62
SWIDTH 500 0
DWIDTH 8 0
BBX 8 16 0 -4
BITMAP
00
00
60
30
18
0C
06
06
0C
18
30
60
00
00
00
00
ENDCHAR
STARTCHAR QUESTION MARK
ENCODING 63
SWIDTH 500 0
DWIDTH 8 0
BBX 8 16 0 -4
BITMAP
00
00
7C
C6
06
0C
18
30
30
00
30
30
00
00
00
00
ENDCHAR
STARTCHAR COMMERCIAL AT
ENCODING 64
SWIDTH 500 0
DWIDTH 8 0
BBX 8 16 0 -4
BITMAP
00
00
00
7C
C2
DA
DA
DA
DA
DE
C0
7C
00
00
00
00
ENDCHAR
STARTCHAR LATIN CAPITAL LETTER A
ENCODING 65
SWIDTH 500 0
DWIDTH 8 0
BBX 8 16 0 -4
BITMAP
00
00
7C
C6
C6
C6
FE
C6
C6
C6
C6
C6
00
00
00
00
ENDCHAR
STARTCHAR LATIN CAPITAL LETTER B
ENCODING 66
SWIDTH 500 0
DWIDTH 8 0
BBX 8 16 0 -4
BITMAP
00
00
FC
C6
C6
C6
FC
C6
C6
C6
C6
FC
00
00
00
00
ENDCHAR
STARTCHAR LATIN CAPITAL LETTER C
ENCODING 67
SWIDTH 500 0
DWIDTH 8 0
BBX 8 16 0 -4
BITMAP
00
00
7E
C0
C0
C0
C0
C0
C0
C0
C0
7E
00
00
00
00
ENDCHAR
STARTCHAR LATIN CAPITAL LETTER D
ENCODING 68
SWIDTH 500 0
DWIDTH 8 0
BBX 8 16 0 -4
BITMAP
00
00
FC
C6
C6
C6
C6
C6
C6
C6
C6
FC
00
00
00
00
ENDCHAR
STARTCHAR LATIN CAPITAL LETTER E
ENCODING 69
SWIDTH 500 0
DWIDTH 8 0
BBX 8 16 0 -4
BITMAP
00
00
7E
C0
C0
C0
F8
C0
C0
C0
C0
7E
00
00
00
00
ENDCHAR
STARTCHAR LATIN CAPITAL LETTER F
ENCODING 70
SWIDTH 500 0
DWIDTH 8 0
BBX 8 16 0 -4
BITMAP
00
00
7E
C0
C0
C0
F8
C0
C0
C0
C0
C0
00
00
00
00
ENDCHAR
STARTCHAR LATIN CAPITAL LETTER G
ENCODING 71
SWIDTH 500 0
DWIDTH 8 0
BBX 8 16 0 -4
BITMAP
00
00
7E
C0
C0
C0
DE
C6
C6
C6
C6
7E
00
00
00
00
ENDCHAR
STARTCHAR LATIN CAPITAL LETTER H
ENCODING 72
SWIDTH 500 0
DWIDTH 8 0
BBX 8 16 0 -4
BITMAP
00
00
C6
C6
C6
C6
FE
C6
C6
C6
C6
C6
00
00
00
00
ENDCHAR
STARTCHAR LATIN CAPITAL LETTER I
ENCODING 73
SWIDTH 500 0
DWIDTH 8 0
BBX 8 16 0 -4
BITMAP
00
00
7E
18
18
18
18
18
18
18
18
7E
00
00
00
00
ENDCHAR
STARTCHAR LATIN CAPITAL LETTER J
ENCODING 74
SWIDTH 500 0
DWIDTH 8 0
BBX 8 16 0 -4
BITMAP
00
00
7E
18
18
18
18
18
18
18
18
F0
00
00
00
00
ENDCHAR
STARTCHAR LATIN CAPITAL LETTER K
ENCODING 75
SWIDTH 500 0
DWIDTH 8 0
BBX 8 16 0 -4
BITMAP
00
00
C6
C6
C6
CC
F8
CC
C6
C6
C6
C6
00
00
00
00
ENDCHAR
STARTCHAR LATIN CAPITAL LETTER L
ENCODING 76
SWIDTH 500 0
DWIDTH 8 0
BBX 8 16 0 -4
BITMAP
00
00
C0
C0
C0
C0
C0
C0
C0
C0
C0
7E
00
00
00
00
ENDCHAR
STARTCHAR LATIN CAPITAL LETTER M
ENCODING 77
SWIDTH 500 0
DWIDTH 8 0
BBX 8 16 0 -4
BITMAP
00
00
C6
EE
FE
D6
C6
C6
C6
C6
C6
C6
00
00
00
00
ENDCHAR
STARTCHAR LATIN CAPITAL LETTER N
ENCODING 78
SWIDTH 500 0
DWIDTH 8 0
BBX 8 16 0 -4
BITMAP
00
00
C6
C6
E6
E6
D6
D6
CE
CE
C6
C6
00
00
00
00
ENDCHAR
STARTCHAR LATIN CAPITAL LETTER O
ENCODING 79
SWIDTH 500 0
DWIDTH 8 0
BBX 8 16 0 -4
BITMAP
00
00
7C
C6
C6
C6
C6
C6
C6
C6
C6
7C
00
00
00
00
ENDCHAR
STARTCHAR LATIN CAPITAL LETTER P
ENCODING 80
SWIDTH 500 0
DWIDTH 8 0
BBX 8 16 0 -4
BITMAP
00
00
FC
C6
C6
C6
FC
C0
C0
C0
C0
C0
00
00
00
00
ENDCHAR
STARTCHAR LATIN CAPITAL LETTER Q
ENCODING 81
SWIDTH 500 0
DWIDTH 8 0
BBX 8 16 0 -4
BITMAP
00
00
7C
C6
C6
C6
C6
C6
C6
D6
D6
7C
18
0C
00
00
ENDCHAR
STARTCHAR LATIN CAPITAL LETTER R
ENCODING 82
SWIDTH 500 0
DWIDTH 8 0
BBX 8 16 0 -4
BITMAP
00
00
FC
C6
C6
C6
FC
C6
C6
C6
C6
C6
00
00
00
00
ENDCHAR
STARTCHAR LATIN CAPITAL LETTER S
ENCODING 83
SWIDTH 500 0
DWIDTH 8 0
BBX 8 16 0 -4
BITMAP
00
00
7E
C0
C0
C0
7C
06
06
06
06
FC
00
00
00
00
ENDCHAR
STARTCHAR LATIN CAPITAL LETTER T
ENCODING 84
SWIDTH 500 0
DWIDTH 8 0
BBX 8 16 0 -4
BITMAP
00
00
FF
18
18
18
18
18
18
18
18
18
00
00
00
00
ENDCHAR
STARTCHAR LATIN CAPITAL LETTER U
ENCODING 85
SWIDTH 500 0
DWIDTH 8 0
BBX 8 16 0 -4
BITMAP
00
00
C6
C6
C6
C6
C6
C6
C6
C6
C6
7E
00
00
00
00
ENDCHAR
STARTCHAR LATIN CAPITAL LETTER V
ENCODING 86
SWIDTH 500 0
DWIDTH 8 0
BBX 8 16 0 -4
BITMAP
00
00
C6
C6
C6
C6
C6
C6
C6
6C
38
10
00
00
00
00
ENDCHAR
STARTCHAR LATIN CAPITAL LETTER W
ENCODING 87
SWIDTH 500 0
DWIDTH 8 0
BBX 8 16 0 -4
BITMAP
00
00
C6
C6
C6
C6
C6
C6
D6
FE
EE
C6
00
00
00
00
ENDCHAR
STARTCHAR LATIN CAPITAL LETTER X
ENCODING 88
SWIDTH 500 0
DWIDTH 8 0
BBX 8 16 0 -4
BITMAP
00
00
C6
C6
C6
6C
38
6C
C6
C6
C6
C6
00
00
00
00
ENDCHAR
STARTCHAR LATIN CAPITAL LETTER Y
ENCODING 89
SWIDTH 500 0
DWIDTH 8 0
BBX 8 16 0 -4
BITMAP
00
00
C6
C6
C6
C6
7E
06
06
06
06
FC
00
00
00
00
ENDCHAR
STARTCHAR LATIN CAPITAL LETTER Z
ENCODING 90
SWIDTH 500 0
DWIDTH 8 0
BBX 8 16 0 -4
BITMAP
00
00
FE
06
06
0C
18
30
60
C0
C0
FE
00
00
00
00
ENDCHAR
STARTCHAR LEFT SQUARE BRACKET
ENCODING 91
SWIDTH 500 0
DWIDTH 8 0
BBX 8 16 0 -4
BITMAP
00
3E
30
30
30
30
30
30
30
30
30
30
3E
00
00
00
ENDCHAR
STARTCHAR REVERSE SOLIDUS
ENCODING 92
SWIDTH 500 0
DWIDTH 8 0
BBX 8 16 0 -4
BITMAP
00
C0
C0
60
60
30
30
18
18
0C
0C
06
06
00
00
00
ENDCHAR
STARTCHAR RIGHT SQUARE BRACKET
ENCODING 93
SWIDTH 500 0
DWIDTH 8 0
BBX 8 16 0 -4
BITMAP
00
7C
0C
0C
0C
0C
0C
0C
0C
0C
0C
0C
7C
00
00
00
ENDCHAR
STARTCHAR CIRCUMFLEX ACCENT
ENCODING 94
SWIDTH 500 0
DWIDTH 8 0
BBX 8 16 0 -4
BITMAP
00
10
38
6C
C6
00
00
00
00
00
00
00
00
00
00
00
ENDCHAR
STARTCHAR LOW LINE
ENCODING 95
SWIDTH 500 0
DWIDTH 8 0
BBX 8 16 0 -4
BITMAP
00
00
00
00
00
00
00
00
00
00
00
00
00
00
FE
00
ENDCHAR
STARTCHAR GRAVE ACCENT
ENCODING 96
SWIDTH 500 0
DWIDTH 8 0
BBX 8 16 0 -4
BITMAP
00
30
18
0C
00
00
00
00
00
00
00
00
00
00
00
00
ENDCHAR
STARTCHAR LATIN SMALL LETTER A
ENCODING 97
SWIDTH 500 0
DWIDTH 8 0
BBX 8 16 0 -4
BITMAP
00
00
00
00
00
7C
06
7E
C6
C6
C6
7E
00
00
00
00
ENDCHAR
STARTCHAR LATIN SMALL LETTER B
ENCODING 98
SWIDTH 500 0
DWIDTH 8 0
BBX 8 16 0 -4
BITMAP
00
00
C0
C0
C0
FC
C6
C6
C6
C6
C6
FC
00
00
00
00
ENDCHAR
STARTCHAR LATIN SMALL LETTER C
ENCODING 99
SWIDTH 500 0
DWIDTH 8 0
BBX 8 16 0 -4
BITMAP
00
00
00
00
00
7E
C0
C0
C0
C0
C0
7E
00
00
00
00
ENDCHAR
STARTCHAR LATIN SMALL LETTER D
ENCODING 100
SWIDTH 500 0
DWIDTH 8 0
BBX 8 16 0 -4
BITMAP
00
00
06
06
06
7E
C6
C6
C6
C6
C6
7E
00
00
00
00
ENDCHAR
STARTCHAR LATIN SMALL LETTER E
ENCODING 101
SWIDTH 500 0
DWIDTH 8 0
BBX 8 16 0 -4
BITMAP
00
00
00
00
00
7E
C6
C6
FE
C0
C0
7E
00
00
00
00
ENDCHAR
STARTCHAR LATIN SMALL LETTER F
ENCODING 102
SWIDTH 500 0
DWIDTH 8 0
BBX 8 16 0 -4
BITMAP
00
00
1E
30
30
30
7C
30
30
30
30
30
00
00
00
00
ENDCHAR
STARTCHAR LATIN SMALL LETTER G
ENCODING 103
SWIDTH 500 0
DWIDTH 8 0
BBX 8 16 0 -4
BITMAP
00
00
00
00
00
7E
C6
C6
C6
C6
C6
7C
06
06
FC
00
ENDCHAR
STARTCHAR LATIN SMALL LETTER H
ENCODING 104
SWIDTH 500 0
DWIDTH 8 0
BBX 8 16 0 -4
BITMAP
00
00
C0
C0
C0
FC
C6
C6
C6
C6
C6
C6
00
00
00
00
ENDCHAR
STARTCHAR LATIN SMALL LETTER I
ENCODING 105
SWIDTH 500 0
DWIDTH 8 0
BBX 8 16 0 -4
BITMAP
00
00
18
18
00
38
18
18
18
18
18
1C
00
00
00
00
ENDCHAR
STARTCHAR LATIN SMALL LETTER J
ENCODING 106
SWIDTH 500 0
DWIDTH 8 0
BBX 8 16 0 -4
BITMAP
00
00
18
18
00
18
18
18
18
18
18
18
18
18
70
00
ENDCHAR
STARTCHAR LATIN SMALL LETTER K
ENCODING 107
SWIDTH 500 0
DWIDTH 8 0
BBX 8 16 0 -4
BITMAP
00
00
C0
C0
C0
CC
D8
F0
F0
D8
CC
C6
00
00
00
00
ENDCHAR
STARTCHAR LATIN SMALL LETTER L
ENCODING 108
SWIDTH 500 0
DWIDTH 8 0
BBX 8 16 0 -4
BITMAP
00
00
30
30
30
30
30
30
30
30
30
1C
00
00
00
00
ENDCHAR
STARTCHAR LATIN SMALL LETTER M
ENCODING 109
SWIDTH 500 0
DWIDTH 8 0
BBX 8 16 0 -4
BITMAP
00
00
00
00
00
EC
D6
D6
D6
D6
C6
C6
00
00
00
00
ENDCHAR
STARTCHAR LATIN SMALL LETTER N
ENCODING 110
SWIDTH 500 0
DWIDTH 8 0
BBX 8 16 0 -4
BITMAP
00
00
00
00
00
FC
C6
C6
C6
C6
C6
C6
00
00
00
00
ENDCHAR
STARTCHAR LATIN SMALL LETTER O
ENCODING 111
SWIDTH 500 0
DWIDTH 8 0
BBX 8 16 0 -4
BITMAP
00
00
00
00
00
7C
C6
C6
C6
C6
C6
7C
00
00
00
00
ENDCHAR
STARTCHAR LATIN SMALL LETTER P
ENCODING 112
SWIDTH 500 0
DWIDTH 8 0
BBX 8 16 0 -4
BITMAP
00
00
00
00
00
FC
C6
C6
C6
C6
C6
FC
C0
C0
C0
00
ENDCHAR
STARTCHAR LATIN SMALL LETTER Q
ENCODING 113
SWIDTH 500 0
DWIDTH 8 0
BBX 8 16 0 -4
BITMAP
00
00
00
00
00
7E
C6
C6
C6
C6
C6
7E
06
06
06
00
ENDCHAR
STARTCHAR LATIN SMALL LETTER R
ENCODING 114
SWIDTH 500 0
DWIDTH 8 0
BBX 8 16 0 -4
BITMAP
00
00
00
00
00
7E
C6
C0
C0
C0
C0
C0
00
00
00
00
ENDCHAR
STARTCHAR LATIN SMALL LETTER S
ENCODING 115
SWIDTH 500 0
DWIDTH 8 0
BBX 8 16 0 -4
BITMAP
00
00
00
00
00
7E
C0
C0
7C
06
06
FC
00
00
00
00
ENDCHAR
STARTCHAR LATIN SMALL LETTER T
ENCODING 116
SWIDTH 500 0
DWIDTH 8 0
BBX 8 16 0 -4
BITMAP
00
00
30
30
30
7C
30
30
30
30
30
1E
00
00
00
00
ENDCHAR
STARTCHAR LATIN SMALL LETTER U
ENCODING 117
SWIDTH 500 0
DWIDTH 8 0
BBX 8 16 0 -4
BITMAP
00
00
00
00
00
C6
C6
C6
C6
C6
C6
7E
00
00
00
00
ENDCHAR
STARTCHAR LATIN SMALL LETTER V
ENCODING 118
SWIDTH 500 0
DWIDTH 8 0
BBX 8 16 0 -4
BITMAP
00
00
00
00
00
C6
C6
C6
C6
6C
38
10
00
00
00
00
ENDCHAR
STARTCHAR LATIN SMALL LETTER W
ENCODING 119
SWIDTH 500 0
DWIDTH 8 0
BBX 8 16 0 -4
BITMAP
00
00
00
00
00
C6
C6
D6
D6
D6
D6
6E
00
00
00
00
ENDCHAR
STARTCHAR LATIN SMALL LETTER X
ENCODING 120
SWIDTH 500 0
DWIDTH 8 0
BBX 8 16 0 -4
BITMAP
00
00
00
00
00
C6
6C
38
38
6C
C6
C6
00
00
00
00
ENDCHAR
STARTCHAR LATIN SMALL LETTER Y
ENCODING 121
SWIDTH 500 0
DWIDTH 8 0
BBX 8 16 0 -4
BITMAP
00
00
00
00
00
C6
C6
C6
C6
C6
C6
7E
06
06
FC
00
ENDCHAR
STARTCHAR LATIN SMALL LETTER Z
ENCODING 122
SWIDTH 500 0
DWIDTH 8 0
BBX 8 16 0 -4
BITMAP
00
00
00
00
00
FE
06
0C
18
30
60
FE
00
00
00
00
ENDCHAR
STARTCHAR LEFT CURLY BRACKET
ENCODING 123
SWIDTH 500 0
DWIDTH 8 0
BBX 8 16 0 -4
BITMAP
00
0E
18
18
18
18
70
70
18
18
18
18
0E
00
00
00
ENDCHAR
STARTCHAR VERTICAL LINE
ENCODING 124
SWIDTH 500 0
DWIDTH 8 0
BBX 8 16 0 -4
BITMAP
00
18
18
18
18
18
18
18
18
18
18
18
18
00
00
00
ENDCHAR
STARTCHAR RIGHT CURLY BRACKET
ENCODING 125
SWIDTH 500 0
DWIDTH 8 0
BBX 8 16 0 -4
BITMAP
00
70
18
18
18
18
0E
0E
18
18
18
18
70
00
00
00
ENDCHAR
STARTCHAR TILDE
ENCODING 126
SWIDTH 500 0
DWIDTH 8 0
BBX 8 16 0 -4
BITMAP
00
00
00
00
00
00
32
7E
4C
00
00
00
00
00
00
00
ENDCHAR
STARTCHAR HOUSE
ENCODING 127
SWIDTH 500 0
DWIDTH 8 0
BBX 8 16 0 -4
BITMAP
00
00
00
00
10
38
6C
C6
C6
C6
FE
00
00
00
00
00
ENDCHAR
STARTCHAR LATIN CAPITAL LETTER C WITH CEDILLA
ENCODING 128
SWIDTH 500 0
DWIDTH 8 0
BBX 8 16 0 -4
BITMAP
00
00
7E
C0
C0
C0
C0
C0
C0
C0
C0
7E
18
18
30
00
ENDCHAR
STARTCHAR LATIN SMALL LETTER U WITH DIAERESIS
ENCODING 129
SWIDTH 500 0
DWIDTH 8 0
BBX 8 16 0 -4
BITMAP
00
00
6C
6C
00
C6
C6
C6
C6
C6
C6
7E
00
00
00
00
ENDCHAR
STARTCHAR LATIN SMALL LETTER E WITH ACUTE
ENCODING 130
SWIDTH 500 0
DWIDTH 8 0
BBX 8 16 0 -4
BITMAP
00
0C
18
30
00
7E
C6
C6
FE
C0
C0
7E
00
00
00
00
ENDCHAR
STARTCHAR LATIN SMALL LETTER A WITH CIRCUMFLEX
ENCODING 131
SWIDTH 500 0
DWIDTH 8 0
BBX 8 16 0 -4
BITMAP
00
10
38
6C
00
7C
06
7E
C6
C6
C6
7E
00
00
00
00
ENDCHAR
STARTCHAR LATIN SMALL LETTER A WITH DIAERESIS
ENCODING 132
SWIDTH 500 0
DWIDTH 8 0
BBX 8 16 0 -4
BITMAP
00
00
6C
6C
00
7C
06
7E
C6
C6
C6
7E
00
00
00
00
ENDCHAR
STARTCHAR LATIN SMALL LETTER A WITH GRAVE
ENCODING 133
SWIDTH 500 0
DWIDTH 8 0
BBX 8 16 0 -4
BITMAP
00
60
30
18
00
7C
06
7E
C6
C6
C6
7E
00
00
00
00
ENDCHAR
STARTCHAR LATIN SMALL LETTER A WITH RING ABOVE
ENCODING 134
SWIDTH 500 0
DWIDTH 8 0
BBX 8 16 0 -4
BITMAP
00
38
6C
38
00
7C
06
7E
C6
C6
C6
7E
00
00
00
00
ENDCHAR
STARTCHAR LATIN SMALL LETTER C WITH CEDILLA
ENCODING 135
SWIDTH 500 0
DWIDTH 8 0
BBX 8 16 0 -4
BITMAP
00
00
00
00
00
7E
C0
C0
C0
C0
C0
7E
18
18
30
00
ENDCHAR
STARTCHAR LATIN SMALL LETTER E WITH CIRCUMFLEX
ENCODING 136
SWIDTH 500 0
DWIDTH 8 0
BBX 8 16 0 -4
BITMAP
00
10
38
6C
00
7E
C6
C6
FE
C0
C0
7E
00
00
00
00
ENDCHAR
STARTCHAR LATIN SMALL LETTER E WITH DIAERESIS
ENCODING 137
SWIDTH 500 0
DWIDTH 8 0
BBX 8 16 0 -4
BITMAP
00
00
6C
6C
00
7E
C6
C6
FE
C0
C0
7E
00
00
00
00
ENDCHAR
STARTCHAR LATIN SMALL LETTER E WITH GRAVE
ENCODING 138
SWIDTH 500 0
DWIDTH 8 0
BBX 8 16 0 -4
BITMAP
00
60
30
18
00
7E
C6
C6
FE
C0
C0
7E
00
00
00
00
ENDCHAR
STARTCHAR LATIN SMALL LETTER I WITH DIAERESIS
ENCODING 139
SWIDTH 500 0
DWIDTH 8 0
BBX 8 16 0 -4
BITMAP
00
00
66
66
00
38
18
18
18
18
18
1C
00
00
00
00
ENDCHAR
STARTCHAR LATIN SMALL LETTER I WITH CIRCUMFLEX
ENCODING 140
SWIDTH 500 0
DWIDTH 8 0
BBX 8 16 0 -4
BITMAP
00
18
3C
66
00
38
18
18
18
18
18
1C
00
00
00
00
ENDCHAR
STARTCHAR LATIN SMALL LETTER I WITH GRAVE
ENCODING 141
SWIDTH 500 0
DWIDTH 8 0
BBX 8 16 0 -4
BITMAP
00
30
18
0C
00
38
18
18
18
18
18
1C
00
00
00
00
ENDCHAR
STARTCHAR LATIN CAPITAL LETTER A WITH DIAERESIS
ENCODING 142
SWIDTH 500 0
DWIDTH 8 0
BBX 8 16 0 -4
BITMAP
6C
6C
00
7C
C6
C6
C6
FE
C6
C6
C6
C6
00
00
00
00
ENDCHAR
STARTCHAR LATIN CAPITAL LETTER A WITH RING ABOVE
ENCODING 143
SWIDTH 500 0
DWIDTH 8 0
BBX 8 16 0 -4
BITMAP
38
6C
38
7C
C6
C6
C6
FE
C6
C6
C6
C6
00
00
00
00
ENDCHAR
STARTCHAR LATIN CAPITAL LETTER E WITH ACUTE
ENCODING 144
SWIDTH 500 0
DWIDTH 8 0
BBX 8 16 0 -4
BITMAP
18
30
00
7E
C0
C0
C0
F8
C0
C0
C0
7E
00
00
00
00
ENDCHAR
STARTCHAR LATIN SMALL LETTER AE
ENCODING 145
SWIDTH 500 0
DWIDTH 8 0
BBX 8 16 0 -4
BITMAP
00
00
00
00
00
6E
16
16
7E
D0
D0
6E
00
00
00
00
ENDCHAR
STARTCHAR LATIN CAPITAL LETTER AE
ENCODING 146
SWIDTH 500 0
DWIDTH 8 0
BBX 8 16 0 -4
BITMAP
00
00
7E
D8
D8
D8
FE
D8
D8
D8
D8
DE
00
00
00
00
ENDCHAR
STARTCHAR LATIN SMALL LETTER O WITH CIRCUMFLEX
ENCODING 147
SWIDTH 500 0
DWIDTH 8 0
BBX 8 16 0 -4
BITMAP
00
10
38
6C
00
7C
C6
C6
C6
C6
C6
7C
00
00
00
00
ENDCHAR
STARTCHAR LATIN SMALL LETTER O WITH DIAERESIS
ENCODING 148
SWIDTH 500 0
DWIDTH 8 0
BBX 8 16 0 -4
BITMAP
00
00
6C
6C
00
7C
C6
C6
C6
C6
C6
7C
00
00
00
00
ENDCHAR
STARTCHAR LATIN SMALL LETTER O WITH GRAVE
ENCODING 149
SWIDTH 500 0
DWIDTH 8 0
BBX 8 16 0 -4
BITMAP
00
60
30
18
00
7C
C6
C6
C6
C6
C6
7C
00
00
00
00
ENDCHAR
STARTCHAR LATIN SMALL LETTER U WITH CIRCUMFLEX
ENCODING 150
SWIDTH 500 0
DWIDTH 8 0
BBX 8 16 0 -4
BITMAP
00
10
38
6C
00
C6
C6
C6
C6
C6
C6
7E
00
00
00
00
ENDCHAR
STARTCHAR LATIN SMALL LETTER U WITH GRAVE
ENCODING 151
SWIDTH 500 0
DWIDTH 8 0
BBX 8 16 0 -4
BITMAP
00
60
30
18
00
C6
C6
C6
C6
C6
C6
7E
00
00
00
00
ENDCHAR
STARTCHAR LATIN SMALL LETTER Y WITH DIAERESIS
ENCODING 152
SWIDTH 500 0
DWIDTH 8 0
BBX 8 16 0 -4
BITMAP
00
00
6C
6C
00
C6
C6
C6
C6
C6
C6
7E
06
06
FC
00
ENDCHAR
STARTCHAR LATIN CAPITAL LETTER O WITH DIAERESIS
ENCODING 153
SWIDTH 500 0
DWIDTH 8 0
BBX 8 16 0 -4
BITMAP
6C
6C
00
7C
C6
C6
C6
C6
C6
C6
C6
7C
00
00
00
00
ENDCHAR
STARTCHAR LATIN CAPITAL LETTER U WITH DIAERESIS
ENCODING 154
SWIDTH 500 0
DWIDTH 8 0
BBX 8 16 0 -4
BITMAP
6C
6C
00
C6
C6
C6
C6
C6
C6
C6
C6
7E
00
00
00
00
ENDCHAR
STARTCHAR CENT SIGN
ENCODING 155
SWIDTH 500 0
DWIDTH 8 0
BBX 8 16 0 -4
BITMAP
00
00
00
00
08
7E
C8
C8
C8
C8
C8
7E
08
00
00
00
ENDCHAR
STARTCHAR POUND SIGN
ENCODING 156
SWIDTH 500 0
DWIDTH 8 0
BBX 8 16 0 -4
BITMAP
00
00
38
6C
60
60
60
F8
60
60
C0
FE
00
00
00
00
ENDCHAR
STARTCHAR YEN SIGN
ENCODING 157
SWIDTH 500 0
DWIDTH 8 0
BBX 8 16 0 -4
BITMAP
00
00
C3
C3
66
3C
18
3C
18
3C
18
18
00
00
00
00
ENDCHAR
STARTCHAR PESETA SIGN
ENCODING 158
SWIDTH 500 0
DWIDTH 8 0
BBX 8 16 0 -4
BITMAP
00
F8
CC
CC
F8
C0
CC
DE
CC
CC
CC
C6
00
00
00
00
ENDCHAR
STARTCHAR LATIN SMALL LETTER F WITH HOOK
ENCODING 159
SWIDTH 500 0
DWIDTH 8 0
BBX 8 16 0 -4
BITMAP
00
00
0E
1B
1B
18
18
18
7E
18
18
18
D8
D8
70
00
ENDCHAR
STARTCHAR LATIN SMALL LETTER A WITH ACUTE
ENCODING 160
SWIDTH 500 0
DWIDTH 8 0
BBX 8 16 0 -4
BITMAP
00
0C
18
30
00
7C
06
7E
C6
C6
C6
7E
00
00
00
00
ENDCHAR
STARTCHAR LATIN SMALL LETTER I WITH ACUTE
ENCODING 161
SWIDTH 500 0
DWIDTH 8 0
BBX 8 16 0 -4
BITMAP
00
0C
18
30
00
38
18
18
18
18
18
1C
00
00
00
00
ENDCHAR
STARTCHAR LATIN SMALL LETTER O WITH ACUTE
ENCODING 162
SWIDTH 500 0
DWIDTH 8 0
BBX 8 16 0 -4
BITMAP
00
0C
18
30
00
7C
C6
C6
C6
C6
C6
7C
00
00
00
00
ENDCHAR
STARTCHAR LATIN SMALL LETTER U WITH ACUTE
ENCODING 163
SWIDTH 500 0
DWIDTH 8 0
BBX 8 16 0 -4
BITMAP
00
0C
18
30
00
C6
C6
C6
C6
C6
C6
7E
00
00
00
00
ENDCHAR
STARTCHAR LATIN SMALL LETTER N WITH TILDE
ENCODING 164
SWIDTH 500 0
DWIDTH 8 0
BBX 8 16 0 -4
BITMAP
00
32
7E
4C
00
FC
C6
C6
C6
C6
C6
C6
00
00
00
00
ENDCHAR
STARTCHAR LATIN CAPITAL LETTER N WITH TILDE
ENCODING 165
SWIDTH 500 0
DWIDTH 8 0
BBX 8 16 0 -4
BITMAP
32
4C
00
C6
E6
E6
D6
D6
CE
CE
C6
C6
00
00
00
00
ENDCHAR
STARTCHAR FEMININE ORDINAL INDICATOR
ENCODING 166
SWIDTH 500 0
DWIDTH 8 0
BBX 8 16 0 -4
BITMAP
00
38
0C
3C
4C
3C
00
7C
00
00
00
00
00
00
00
00
ENDCHAR
STARTCHAR MASCULINE ORDINAL INDICATOR
ENCODING 167
SWIDTH 500 0
DWIDTH 8 0
BBX 8 16 0 -4
BITMAP
00
38
6C
6C
38
00
00
7C
00
00
00
00
00
00
00
00
ENDCHAR
STARTCHAR INVERTED QUESTION MARK
ENCODING 168
SWIDTH 500 0
DWIDTH 8 0
BBX 8 16 0 -4
BITMAP
00
00
18
18
00
18
18
30
60
C0
C6
7C
00
00
00
00
ENDCHAR
STARTCHAR REVERSED NOT SIGN
ENCODING 169
SWIDTH 500 0
DWIDTH 8 0
BBX 8 16 0 -4
BITMAP
00
00
00
00
00
00
FE
C0
C0
C0
00
00
00
00
00
00
ENDCHAR
STARTCHAR NOT SIGN
ENCODING 170
SWIDTH 500 0
DWIDTH 8 0
BBX 8 16 0 -4
BITMAP
00
00
00
00
00
00
FE
06
06
06
00
00
00
00
00
00
ENDCHAR
STARTCHAR VULGAR FRACTION ONE HALF
ENCODING 171
SWIDTH 500 0
DWIDTH 8 0
BBX 8 16 0 -4
BITMAP
00
40
C0
40
42
46
EC
18
30
6C
D2
82
0C
10
1E
00
ENDCHAR
STARTCHAR VULGAR FRACTION ONE QUARTER
ENCODING 172
SWIDTH 500 0
DWIDTH 8 0
BBX 8 16 0 -4
BITMAP
00
40
C0
40
42
46
EC
18
30
70
D4
94
1E
04
04
00
ENDCHAR
STARTCHAR INVERTED EXCLAMATION MARK
ENCODING 173
SWIDTH 500 0
DWIDTH 8 0
BBX 8 16 0 -4
BITMAP
00
00
18
18
00
18
18
18
18
18
18
18
00
00
00
00
ENDCHAR
STARTCHAR LEFT-POINTING DOUBLE ANGLE QUOTATION MARK
ENCODING 174
SWIDTH 500 0
DWIDTH 8 0
BBX 8 16 0 -4
BITMAP
00
00
00
00
00
00
33
66
CC
66
33
00
00
00
00
00
ENDCHAR
STARTCHAR RIGHT-POINTING DOUBLE ANGLE QUOTATION MARK
ENCODING 175
SWIDTH 500 0
DWIDTH 8 0
BBX 8 16 0 -4
BITMAP
00
00
00
00
00
00
CC
66
33
66
CC
00
00
00
00
00
ENDCHAR
STARTCHAR LIGHT SHADE
ENCODING 176
SWIDTH 500 0
DWIDTH 8 0
BBX 8 16 0 -4
BITMAP
11
44
11
44
11
44
11
44
11
44
11
44
11
44
11
44
ENDCHAR
STARTCHAR MEDIUM SHADE
ENCODING 177
SWIDTH 500 0
DWIDTH 8 0
BBX 8 16 0 -4
BITMAP
55
AA
55
AA
55
AA
55
AA
55
AA
55
AA
55
AA
55
AA
ENDCHAR
STARTCHAR DARK SHADE
ENCODING 178
SWIDTH 500 0
DWIDTH 8 0
BBX 8 16 0 -4
BITMAP
DD
77
DD
77
DD
77
DD
77
DD
77
DD
77
DD
77
DD
77
ENDCHAR
STARTCHAR BOX DRAWINGS LIGHT VERTICAL
ENCODING 179
SWIDTH 500 0
DWIDTH 8 0
BBX 8 16 0 -4
BITMAP
18
18
18
18
18
18
18
18
18
18
18
18
18
18
18
18
ENDCHAR
STARTCHAR BOX DRAWINGS LIGHT VERTICAL AND LEFT
ENCODING 180
SWIDTH 500 0
DWIDTH 8 0
BBX 8 16 0 -4
BITMAP
18
18
18
18
18
18
18
F8
18
18
18
18
18
18
18
18
ENDCHAR
STARTCHAR BOX DRAWINGS VERTICAL SINGLE AND LEFT DOUBLE
ENCODING 181
SWIDTH 500 0
DWIDTH 8 0
BBX 8 16 0 -4
BITMAP
18
18
18
18
18
18
F8
18
F8
18
18
18
18
18
18
18
ENDCHAR
STARTCHAR BOX DRAWINGS VERTICAL DOUBLE AND LEFT SINGLE
ENCODING 182
SWIDTH 500 0
DWIDTH 8 0
BBX 8 16 0 -4
BITMAP
36
36
36
36
36
36
36
F6
36
36
36
36
36
36
36
36
ENDCHAR
STARTCHAR BOX DRAWINGS DOWN DOUBLE AND LEFT SINGLE
ENCODING 183
SWIDTH 500 0
DWIDTH 8 0
BBX 8 16 0 -4
BITMAP
00
00
00
00
00
00
00
FE
36
36
36
36
36
36
36
36
ENDCHAR
STARTCHAR BOX DRAWINGS DOWN SINGLE AND LEFT DOUBLE
ENCODING 184
SWIDTH 500 0
DWIDTH 8 0
BBX 8 16 0 -4
BITMAP
00
00
00
00
00
00
F8
18
F8
18
18
18
18
18
18
18
ENDCHAR
STARTCHAR BOX DRAWINGS DOUBLE VERTICAL AND LEFT
ENCODING 185
SWIDTH 500 0
DWIDTH 8 0
BBX 8 16 0 -4
BITMAP
36
36
36
36
36
36
F6
06
F6
36
36
36
36
36
36
36
ENDCHAR
STARTCHAR BOX DRAWINGS DOUBLE VERTICAL
ENCODING 186
SWIDTH 500 0
DWIDTH 8 0
BBX 8 16 0 -4
BITMAP
36
36
36
36
36
36
36
36
36
36
36
36
36
36
36
36
ENDCHAR
STARTCHAR BOX DRAWINGS DOUBLE DOWN AND LEFT
ENCODING 187
SWIDTH 500 0
DWIDTH 8 0
BBX 8 16 0 -4
BITMAP
00
00
00
00
00
00
FE
06
F6
36
36
36
36
36
36
36
ENDCHAR
STARTCHAR BOX DRAWINGS DOUBLE UP AND LEFT
ENCODING 188
SWIDTH 500 0
DWIDTH 8 0
BBX 8 16 0 -4
BITMAP
36
36
36
36
36
36
F6
06
FE
00
00
00
00
00
00
00
ENDCHAR
STARTCHAR BOX DRAWINGS UP DOUBLE AND LEFT SINGLE
ENCODING 189
SWIDTH 500 0
DWIDTH 8 0
BBX 8 16 0 -4
BITMAP
36
36
36
36
36
36
36
FE
00
00
00
00
00
00
00
00
ENDCHAR
STARTCHAR BOX DRAWINGS UP SINGLE AND LEFT DOUBLE
ENCODING 190
SWIDTH 500 0
DWIDTH 8 0
BBX 8 16 0 -4
BITMAP
18
18
18
18
18
18
F8
18
F8
00
00
00
00
00
00
00
ENDCHAR
STARTCHAR BOX DRAWINGS LIGHT DOWN AND LEFT
ENCODING 191
SWIDTH 500 0
DWIDTH 8 0
BBX 8 16 0 -4
BITMAP
00
00
00
00
00
00
00
F8
18
18
18
18
18
18
18
18
ENDCHAR
STARTCHAR BOX DRAWINGS LIGHT UP AND RIGHT
ENCODING 192
SWIDTH 500 0
DWIDTH 8 0
BBX 8 16 0 -4
BITMAP
18
18
18
18
18
18
18
1F
00
00
00
00
00
00
00
00
ENDCHAR
STARTCHAR BOX DRAWINGS LIGHT UP AND HORIZONTAL
ENCODING 193
SWIDTH 500 0
DWIDTH 8 0
BBX 8 16 0 -4
BITMAP
18
18
18
18
18
18
18
FF
00
00
00
00
00
00
00
00
ENDCHAR
STARTCHAR BOX DRAWINGS LIGHT DOWN AND HORIZONTAL
ENCODING 194
SWIDTH 500 0
DWIDTH 8 0
BBX 8 16 0 -4
BITMAP
00
00
00
00
00
00
00
FF
18
18
18
18
18
18
18
18
ENDCHAR
STARTCHAR BOX DRAWINGS LIGHT VERTICAL AND RIGHT
ENCODING 195
SWIDTH 500 0
DWIDTH 8 0
BBX 8 16 0 -4
BITMAP
18
18
18
18
18
18
18
1F
18
18
18
18
18
18
18
18
ENDCHAR
STARTCHAR BOX DRAWINGS LIGHT HORIZONTAL
ENCODING 196
SWIDTH 500 0
DWIDTH 8 0
BBX 8 16 0 -4
BITMAP
00
00
00
00
00
00
00
FF
00
00
00
00
00
00
00
00
ENDCHAR
STARTCHAR BOX DRAWINGS LIGHT VERTICAL AND HORIZONTAL
ENCODING 197
SWIDTH 500 0
DWIDTH 8 0
BBX 8 16 0 -4
BITMAP
18
18
18
18
18
18
18
FF
18
18
18
18
18
18
18
18
ENDCHAR
STARTCHAR BOX DRAWINGS VERTICAL SINGLE AND RIGHT DOUBLE
ENCODING 198
SWIDTH 500 0
DWIDTH 8 0
BBX 8 16 0 -4
BITMAP
18
18
18
18
18
18
1F
18
1F
18
18
18
18
18
18
18
ENDCHAR
STARTCHAR BOX DRAWINGS VERTICAL DOUBLE AND RIGHT SINGLE
ENCODING 199
SWIDTH 500 0
DWIDTH 8 0
BBX 8 16 0 -4
BITMAP
36
36
36
36
36
36
36
37
36
36
36
36
36
36
36
36
ENDCHAR
STARTCHAR BOX DRAWINGS DOUBLE UP AND RIGHT
ENCODING 200
SWIDTH 500 0
DWIDTH 8 0
BBX 8 16 0 -4
BITMAP
36
36
36
36
36
36
37
30
3F
00
00
00
00
00
00
00
ENDCHAR
STARTCHAR BOX DRAWINGS DOUBLE DOWN AND RIGHT
ENCODING 201
SWIDTH 500 0
DWIDTH 8 0
BBX 8 16 0 -4
BITMAP
00
00
00
00
00
00
3F
30
37
36
36
36
36
36
36
36
ENDCHAR
STARTCHAR BOX DRAWINGS DOUBLE UP AND HORIZONTAL
ENCODING 202
SWIDTH 500 0
DWIDTH 8 0
BBX 8 16 0 -4
BITMAP
36
36
36
36
36
36
F7
00
FF
00
00
00
00
00
00
00
ENDCHAR
STARTCHAR BOX DRAWINGS DOUBLE DOWN AND HORIZONTAL
ENCODING 203
SWIDTH 500 0
DWIDTH 8 0
BBX 8 16 0 -4
BITMAP
00
00
00
00
00
00
FF
00
F7
36
36
36
36
36
36
36
ENDCHAR
STARTCHAR BOX DRAWINGS DOUBLE VERTICAL AND RIGHT
ENCODING 204
SWIDTH 500 0
DWIDTH 8 0
BBX 8 16 0 -4
BITMAP
36
36
36
36
36
36
37
30
37
36
36
36
36
36
36
36
ENDCHAR
STARTCHAR BOX DRAWINGS DOUBLE HORIZONTAL
ENCODING 205
SWIDTH 500 0
DWIDTH 8 0
BBX 8 16 0 -4
BITMAP
00
00
00
00
00
00
FF
00
FF
00
00
00
00
00
00
00
ENDCHAR
STARTCHAR BOX DRAWINGS DOUBLE VERTICAL AND HORIZONTAL
ENCODING 206
SWIDTH 500 0
DWIDTH 8 0
BBX 8 16 0 -4
BITMAP
36
36
36
36
36
36
F7
00
F7
36
36
36
36
36
36
36
ENDCHAR
STARTCHAR BOX DRAWINGS UP SINGLE AND HORIZONTAL DOUBLE
ENCODING 207
SWIDTH 500 0
DWIDTH 8 0
BBX 8 16 0 -4
BITMAP
18
18
18
18
18
18
FF
00
FF
00
00
00
00
00
00
00
ENDCHAR
STARTCHAR BOX DRAWINGS UP DOUBLE AND HORIZONTAL SINGLE
ENCODING 208
SWIDTH 500 0
DWIDTH 8 0
BBX 8 16 0 -4
BITMAP
36
36
36
36
36
36
36
FF
00
00
00
00
00
00
00
00
ENDCHAR
STARTCHAR BOX DRAWINGS DOWN SINGLE AND HORIZONTAL DOUBLE
ENCODING 209
SWIDTH 500 0
DWIDTH 8 0
BBX 8 16 0 -4
BITMAP
00
00
00
00
00
00
FF
00
FF
18
18
18
18
18
18
18
ENDCHAR
STARTCHAR BOX DRAWINGS DOWN DOUBLE AND HORIZONTAL SINGLE
ENCODING 210
SWIDTH 500 0
DWIDTH 8 0
BBX 8 16 0 -4
BITMAP
00
00
00
00
00
00
00
FF
36
36
36
36
36
36
36
36
ENDCHAR
STARTCHAR BOX DRAWINGS UP DOUBLE AND RIGHT SINGLE
ENCODING 211
SWIDTH 500 0
DWIDTH 8 0
BBX 8 16 0 -4
BITMAP
36
36
36
36
36
36
36
3F
00
00
00
00
00
00
00
00
ENDCHAR
STARTCHAR BOX DRAWINGS UP SINGLE AND RIGHT DOUBLE
ENCODING 212
SWIDTH 500 0
DWIDTH 8 0
BBX 8 16 0 -4
BITMAP
18
18
18
18
18
18
1F
18
1F
00
00
00
00
00
00
00
ENDCHAR
STARTCHAR BOX DRAWINGS DOWN SINGLE AND RIGHT DOUBLE
ENCODING 213
SWIDTH 500 0
DWIDTH 8 0
BBX 8 16 0 -4
BITMAP
00
00
00
00
00
00
1F
18
1F
18
18
18
18
18
18
18
ENDCHAR
STARTCHAR BOX DRAWINGS DOWN DOUBLE AND RIGHT SINGLE
ENCODING 214
SWIDTH 500 0
DWIDTH 8 0
BBX 8 16 0 -4
BITMAP
00
00
00
00
00
00
00
3F
36
36
36
36
36
36
36
36
ENDCHAR
STARTCHAR BOX DRAWINGS VERTICAL DOUBLE AND HORIZONTAL SINGLE
ENCODING 215
SWIDTH 500 0
DWIDTH 8 0
BBX 8 16 0 -4
BITMAP
36
36
36
36
36
36
36
FF
36
36
36
36
36
36
36
36
ENDCHAR
STARTCHAR BOX DRAWINGS VERTICAL SINGLE AND HORIZONTAL DOUBLE
ENCODING 216
SWIDTH 500 0
DWIDTH 8 0
BBX 8 16 0 -4
BITMAP
18
18
18
18
18
18
FF
18
FF
18
18
18
18
18
18
18
ENDCHAR
STARTCHAR BOX DRAWINGS LIGHT UP AND LEFT
ENCODING 217
SWIDTH 500 0
DWIDTH 8 0
BBX 8 16 0 -4
BITMAP
18
18
18
18
18
18
18
F8
00
00
00
00
00
00
00
00
ENDCHAR
STARTCHAR BOX DRAWINGS LIGHT DOWN AND RIGHT
ENCODING 218
SWIDTH 500 0
DWIDTH 8 0
BBX 8 16 0 -4
BITMAP
00
00
00
00
00
00
00
1F
18
18
18
18
18
18
18
18
ENDCHAR
STARTCHAR FULL BLOCK
ENCODING 219
SWIDTH 500 0
DWIDTH 8 0
BBX 8 16 0 -4
BITMAP
FF
FF
FF
FF
FF
FF
FF
FF
FF
FF
FF
FF
FF
FF
FF
FF
ENDCHAR
STARTCHAR LOWER HALF BLOCK
ENCODING 220
SWIDTH 500 0
DWIDTH 8 0
BBX 8 16 0 -4
BITMAP
00
00
00
00
00
00
00
00
FF
FF
FF
FF
FF
FF
FF
FF
ENDCHAR
STARTCHAR LEFT HALF BLOCK
ENCODING 221
SWIDTH 500 0
DWIDTH 8 0
BBX 8 16 0 -4
BITMAP
F0
F0
F0
F0
F0
F0
F0
F0
F0
F0
F0
F0
F0
F0
F0
F0
ENDCHAR
STARTCHAR RIGHT HALF BLOCK
ENCODING 222
SWIDTH 500 0
DWIDTH 8 0
BBX 8 16 0 -4
BITMAP
0F
0F
0F
0F
0F
0F
0F
0F
0F
0F
0F
0F
0F
0F
0F
0F
ENDCHAR
STARTCHAR UPPER HALF BLOCK
ENCODING 223
SWIDTH 500 0
DWIDTH 8 0
BBX 8 16 0 -4
BITMAP
FF
FF
FF
FF
FF
FF
FF
FF
00
00
00
00
00
00
00
00
ENDCHAR
STARTCHAR GREEK SMALL LETTER ALPHA
ENCODING 224
SWIDTH 500 0
DWIDTH 8 0
BBX 8 16 0 -4
BITMAP
00
00
00
00
00
76
DC
D8
D8
D8
DC
76
00
00
00
00
ENDCHAR
STARTCHAR LATIN SMALL LETTER SHARP S
ENCODING 225
SWIDTH 500 0
DWIDTH 8 0
BBX 8 16 0 -4
BITMAP
00
00
78
CC
CC
CC
D8
CC
C6
C6
D6
DC
00
00
00
00
ENDCHAR
STARTCHAR GREEK CAPITAL LETTER GAMMA
ENCODING 226
SWIDTH 500 0
DWIDTH 8 0
BBX 8 16 0 -4
BITMAP
00
00
FE
C6
C0
C0
C0
C0
C0
C0
C0
C0
00
00
00
00
ENDCHAR
STARTCHAR GREEK SMALL LETTER PI
ENCODING 227
SWIDTH 500 0
DWIDTH 8 0
BBX 8 16 0 -4
BITMAP
00
00
00
00
00
FE
6C
6C
6C
6C
6C
6C
00
00
00
00
ENDCHAR
STARTCHAR GREEK CAPITAL LETTER SIGMA
ENCODING 228
SWIDTH 500 0
DWIDTH 8 0
BBX 8 16 0 -4
BITMAP
00
00
FE
C6
60
30
18
18
30
60
C6
FE
00
00
00
00
ENDCHAR
STARTCHAR GREEK SMALL LETTER SIGMA
ENCODING 229
SWIDTH 500 0
DWIDTH 8 0
BBX 8 16 0 -4
BITMAP
00
00
00
00
00
7E
D8
D8
D8
D8
D8
70
00
00
00
00
ENDCHAR
STARTCHAR MICRO SIGN
ENCODING 230
SWIDTH 500 0
DWIDTH 8 0
BBX 8 16 0 -4
BITMAP
00
00
00
00
00
CC
CC
CC
CC
CC
CC
F6
C0
C0
C0
00
ENDCHAR
STARTCHAR GREEK SMALL LETTER TAU
ENCODING 231
SWIDTH 500 0
DWIDTH 8 0
BBX 8 16 0 -4
BITMAP
00
00
00
00
00
7E
18
18
18
18
18
0C
00
00
00
00
ENDCHAR
STARTCHAR GREEK CAPITAL LETTER PHI
ENCODING 232
SWIDTH 500 0
DWIDTH 8 0
BBX 8 16 0 -4
BITMAP
00
00
10
7C
D6
D6
D6
D6
D6
D6
7C
10
00
00
00
00
ENDCHAR
STARTCHAR GREEK CAPITAL LETTER THETA
ENCODING 233
SWIDTH 500 0
DWIDTH 8 0
BBX 8 16 0 -4
BITMAP
00
00
38
6C
C6
C6
FE
C6
C6
C6
6C
38
00
00
00
00
ENDCHAR
STARTCHAR GREEK CAPITAL LETTER OMEGA
ENCODING 234
SWIDTH 500 0
DWIDTH 8 0
BBX 8 16 0 -4
BITMAP
00
00
38
6C
C6
C6
C6
C6
C6
6C
6C
EE
00
00
00
00
ENDCHAR
STARTCHAR GREEK SMALL LETTER DELTA
ENCODING 235
SWIDTH 500 0
DWIDTH 8 0
BBX 8 16 0 -4
BITMAP
00
00
1E
30
18
0C
3C
66
66
66
66
3C
00
00
00
00
ENDCHAR
STARTCHAR INFINITY
ENCODING 236
SWIDTH 500 0
DWIDTH 8 0
BBX 8 16 0 -4
BITMAP
00
00
00
00
00
7E
DB
DB
DB
7E
00
00
00
00
00
00
ENDCHAR
STARTCHAR GREEK SMALL LETTER PHI
ENCODING 237
SWIDTH 500 0
DWIDTH 8 0
BBX 8 16 0 -4
BITMAP
00
00
00
00
00
4C
D6
D6
D6
D6
D6
7C
10
10
00
00
ENDCHAR
STARTCHAR GREEK SMALL LETTER EPSILON
ENCODING 238
SWIDTH 500 0
DWIDTH 8 0
BBX 8 16 0 -4
BITMAP
00
00
00
00
00
7C
C6
C0
70
C0
C6
7C
00
00
00
00
ENDCHAR
STARTCHAR INTERSECTION
ENCODING 239
SWIDTH 500 0
DWIDTH 8 0
BBX 8 16 0 -4
BITMAP
00
00
00
7C
C6
C6
C6
C6
C6
C6
C6
C6
00
00
00
00
ENDCHAR
STARTCHAR IDENTICAL TO
ENCODING 240
SWIDTH 500 0
DWIDTH 8 0
BBX 8 16 0 -4
BITMAP
00
00
00
00
7E
00
00
7E
00
00
7E
00
00
00
00
00
ENDCHAR
STARTCHAR PLUS-MINUS SIGN
ENCODING 241
SWIDTH 500 0
DWIDTH 8 0
BBX 8 16 0 -4
BITMAP
00
00
00
00
00
18
18
7E
18
18
00
7E
00
00
00
00
ENDCHAR
STARTCHAR GREATER-THAN OR EQUAL TO
ENCODING 242
SWIDTH 500 0
DWIDTH 8 0
BBX 8 16 0 -4
BITMAP
00
00
00
00
00
30
18
0C
18
30
00
3C
00
00
00
00
ENDCHAR
STARTCHAR LESS-THAN OR EQUAL TO
ENCODING 243
SWIDTH 500 0
DWIDTH 8 0
BBX 8 16 0 -4
BITMAP
00
00
00
00
00
0C
18
30
18
0C
00
3C
00
00
00
00
ENDCHAR
STARTCHAR TOP HALF INTEGRAL
ENCODING 244
SWIDTH 500 0
DWIDTH 8 0
BBX 8 16 0 -4
BITMAP
00
00
0E
1B
1B
18
18
18
18
18
18
18
18
18
18
18
ENDCHAR
STARTCHAR BOTTOM HALF INTEGRAL
ENCODING 245
SWIDTH 500 0
DWIDTH 8 0
BBX 8 16 0 -4
BITMAP
18
18
18
18
18
18
18
18
18
D8
D8
70
00
00
00
00
ENDCHAR
STARTCHAR DIVISION SIGN
ENCODING 246
SWIDTH 500 0
DWIDTH 8 0
BBX 8 16 0 -4
BITMAP
00
00
00
00
18
18
00
7E
00
18
18
00
00
00
00
00
ENDCHAR
STARTCHAR ALMOST EQUAL TO
ENCODING 247
SWIDTH 500 0
DWIDTH 8 0
BBX 8 16 0 -4
BITMAP
00
00
00
00
00
32
4C
00
32
4C
00
00
00
00
00
00
ENDCHAR
STARTCHAR DEGREE SIGN
ENCODING 248
SWIDTH 500 0
DWIDTH 8 0
BBX 8 16 0 -4
BITMAP
00
38
6C
6C
38
00
00
00
00
00
00
00
00
00
00
00
ENDCHAR
STARTCHAR BULLET OPERATOR
ENCODING 249
SWIDTH 500 0
DWIDTH 8 0
BBX 8 16 0 -4
BITMAP
00
00
00
00
00
00
38
38
38
00
00
00
00
00
00
00
ENDCHAR
STARTCHAR MIDDLE DOT
ENCODING 250
SWIDTH 500 0
DWIDTH 8 0
BBX 8 16 0 -4
BITMAP
00
00
00
00
00
00
00
18
18
00
00
00
00
00
00
00
ENDCHAR
STARTCHAR SQUARE ROOT
ENCODING 251
SWIDTH 500 0
DWIDTH 8 0
BBX 8 16 0 -4
BITMAP
00
0F
0C
0C
0C
0C
0C
CC
6C
3C
1C
0C
00
00
00
00
ENDCHAR
STARTCHAR SUPERSCRIPT LATIN SMALL LETTER N
ENCODING 252
SWIDTH 500 0
DWIDTH 8 0
BBX 8 16 0 -4
BITMAP
00
78
6C
6C
6C
6C
6C
00
00
00
00
00
00
00
00
00
ENDCHAR
STARTCHAR SUPERSCRIPT TWO
ENCODING 253
SWIDTH 500 0
DWIDTH 8 0
BBX 8 16 0 -4
BITMAP
00
38
4C
0C
38
60
7C
00
00
00
00
00
00
00
00
00
ENDCHAR
STARTCHAR BLACK SQUARE
ENCODING 254
SWIDTH 500 0
DWIDTH 8 0
BBX 8 16 0 -4
BITMAP
00
00
00
00
7C
7C
7C
7C
7C
7C
7C
00
00
00
00
00
ENDCHAR
STARTCHAR NO-BREAK SPACE
ENCODING 255
SWIDTH 500 0
DWIDTH 8 0
BBX 8 16 0 -4
BITMAP
00
00
00
00
00
00
00
00
00
00
00
00
00
00
00
00
ENDCHAR
ENDFONT
